<?xml version="1.0" standalone="no"?>
<!DOCTYPE svg PUBLIC "-//W3C//DTD SVG 1.1//EN" "http://www.w3.org/Graphics/SVG/1.1/DTD/svg11.dtd" >
<svg xmlns="http://www.w3.org/2000/svg">
<metadata></metadata>
<defs>
<font id="infernosspicymedium" horiz-adv-x="931" >
<font-face units-per-em="2048" ascent="2048" descent="0" />
<missing-glyph horiz-adv-x="614" />
<glyph horiz-adv-x="0" />
<glyph unicode="&#xd;" horiz-adv-x="681" />
<glyph unicode=" "  horiz-adv-x="614" />
<glyph unicode="&#x09;" horiz-adv-x="614" />
<glyph unicode="&#xa0;" horiz-adv-x="614" />
<glyph unicode="!" horiz-adv-x="573" d="M272 84q0 76 35 121q33 41 86 43q47 2 86 -29t47 -78q6 -47 -23.5 -85t-68.5 -48q-53 -14 -84 23q-10 14 -16 30q-10 -12 -27 -12q-14 0 -24.5 10.5t-10.5 24.5zM336 1724q-4 25 18 35q8 10 23 15q18 4 33 -13q4 -4 6 -8q0 -4 2 -6v-8q2 -6 2 -15q2 -16 4 -43 q6 -59 6 -71q4 -205 4 -326v-45q0 -10 2 -20q33 -362 27 -525q-2 -55 -17 -190q-8 -90 -12 -142l2 -6q0 -8 -2 -14v-25q0 -14 -10 -24t-24.5 -10t-24.5 10t-10 24v41q-9 76 -9 172q-12 10 -12 27q0 131 6 439.5t4 473.5q0 6 -1 24.5t-2 50.5t-3 52q-4 70 -12 127zM369 168h4 q14 -2 22 -14.5t6 -26.5q-8 -41 2 -51h11q18 4 31.5 21.5t11.5 31.5q-2 20 -21.5 34.5t-40.5 14.5q-16 0 -26 -10z" />
<glyph unicode="&#x22;" horiz-adv-x="534" d="M207 1489q0 14 10 24.5t24.5 10.5t24.5 -10.5t10 -24.5v-66q9 -10 11 -20q23 -215 41 -330q2 -14 -6.5 -26.5t-22.5 -14.5h-2q2 -14 2 -26q0 -14 -9 -25.5t-23.5 -11.5t-26 9t-11.5 23q-2 55 -12 225.5t-10 262.5zM365 1534q0 14 10 25v2q-6 12 -2 25t17 19.5t26.5 2 t19.5 -18.5q37 -78 45 -270q2 -55 3 -149.5t3 -127.5q0 -14 -9 -25t-23.5 -11t-25.5 9t-11 23v17q-6 8 -6 18q0 76 -23 225q-25 164 -24 236z" />
<glyph unicode="#" horiz-adv-x="1726" d="M47 538.5q2 14.5 13.5 23.5t25.5 7t23 -12l6 -8l4 -4q70 -86 149 -103q29 6 70 23q119 47 231 197q-33 47 -57 104q-43 104 -49 232t24 231q27 104 64 162q31 49 72 65q51 20 106 -18q51 -37 68 -121q33 -45 43 -119q10 -82 -6 -203q-21 -135 -111 -295q113 -119 285 -34 q63 31 153 110q45 66 72 137q2 2 2 7q-20 31 -25 47q-12 39 -8 104q2 37 6 47q12 39 60 43q33 2 75 -31q20 -14 41 -34l7 -6q8 -10 18 -21l2 -4q33 150 117 213q43 33 82 14q33 -14 49 -61q23 -66 20 -197q0 -109 -16 -223q-14 -113 -33 -147q-25 -47 -53 -56q-25 -8 -55 10 q-20 10 -47 35q-47 39 -109 107q-43 49 -82 94l-4 -6q6 -4 10 -8q10 -12 8 -26.5t-12 -22.5q-25 -18 -74 -62q-143 -205 -327 -213q-139 -6 -238 70q-39 -51 -82 -90q-119 -117 -239 -125q-31 -2 -60 2q-47 -6 -84 8q-41 16 -78 63q-10 12 -26 37l-23 31q-10 12 -8 26.5z M535 1090q-12 -164 40 -297q16 -37 35 -68l4 8q-87 154 -79 357zM578 1288q45 90 120 82q-4 6 -10 10q-23 16 -41 11q-18 -8 -39 -37q-14 -27 -30 -66zM604 1106q-10 -154 45 -289q41 113 66 232q25 127 18 215q-2 10 -2 20q-14 14 -35 16q-37 8 -63 -59q-25 -59 -29 -135z M1272 1030q8 12 16 21q12 10 25 16q-4 4 -10 8l-27 17h-4v-7v-8v-10v-37zM1311 934l10 -12q41 -55 96 -115q55 -61 99 -98q-2 141 0 196q8 156 47 225q14 27 43 17q-4 37 -13 59q-6 18 -12 23q-4 -2 -12 -8q-47 -35 -72 -109q10 -13 8 -29q-16 -84 -16 -264 q0 -14 -10.5 -24.5t-24.5 -10.5t-24.5 10.5t-10.5 24.5v88q-8 2 -14 11q-4 4 -8 10v-2q0 -14 -10.5 -24.5t-24.5 -10.5t-24.5 10t-10.5 25v61q-6 -12 -10 -31q-2 -10 -6 -22zM1585 758q4 29 8 63q16 111 17 213v31q-18 -57 -25 -164q-2 -55 0 -143z" />
<glyph unicode="$" horiz-adv-x="1423" d="M293 303q2 14 14 23l4 6q-8 20 8 37l13 12q-25 57 -37 96q-4 14 2 26.5t20.5 16.5t26.5 -2t16 -20l23 -60l25 27l-58 160q-4 14 2 27.5t19.5 17.5t27 -2t17.5 -19l45 -125l39 41q-41 96 -78 154q-8 10 -5 24.5t14 22.5t25.5 5t22.5 -15q37 -53 72 -133l51 55l139 176 q51 61 135.5 154.5t157.5 158.5q-25 74 -55 138q-12 23 6 38v3q0 14 10.5 24t24.5 10q57 0 108 15q2 25 25 30q20 6 35 -8q20 8 39 21l22 16l21 12q12 8 16 13q16 10 27 12q23 10 43 0q14 -10 20 -29q2 -10 0 -22q0 -18 -8 -47q-12 -41 -43 -123q-90 -229 -100 -262 q-4 -14 -16.5 -20.5t-27 -2.5t-20.5 16.5t-2 26.5q2 10 6 21q-16 0 -26 10l22 -92q2 -14 -5 -26.5t-21.5 -15.5t-26.5 4t-16 21q-14 70 -31 125l-406 -442l-69 -90q23 -57 35 -82q4 -14 -1.5 -27.5t-18.5 -18.5t-26.5 0t-19.5 17l-20 47l-39 -49l18 -49q4 -14 -2 -27.5 t-19.5 -17.5t-26.5 2t-17 18l-5 11l-20 -25q27 -63 39 -106q4 -14 -2 -26.5t-20.5 -17t-27 2t-16.5 20.5q-10 33 -26 74q-10 -8 -23 -17q-10 -10 -24.5 -8t-23.5 13.5t-7 25.5zM1051 1311q20 -45 39 -94q-13 51 -19 96q-10 0 -20 -2zM1139 1325q2 -2 2 -4q12 -82 49 -205 l14 39q-14 6 -18 21q-14 41 -31 106l-10 45zM1260 1376q8 -20 14 -45q14 43 24 70q-20 -12 -34 -23z" />
<glyph unicode="%" horiz-adv-x="1818" d="M487 1057q6 55 39 82q49 41 115 14q43 -18 90 -61q8 -2 16.5 -8.5t12.5 -18.5q29 -33 59 -74q16 27 43 13q16 -6 21 -25q2 2 4 6q10 10 31 33l149 158q53 55 140 138t165 146q74 59 125 82t90 12q49 -10 70 -67q6 -2 12 -8q47 -43 78 -105q45 -90 8 -147q-18 -33 -45 -37 h-12q27 -100 4 -156q-10 -25 -31 -35q-23 -12 -49 -4q-16 4 -37 19q10 -14 17 -29q31 -68 8 -129q-18 -49 -58 -72q-31 -14 -71 -14h-29l-12 2l6 -12q25 -66 35 -111q14 -80 -15 -125q-31 -47 -104 -51q2 -20 6 -55q6 -74 -25 -103q-27 -29 -77 -14q-12 2 -31 10l-10 2 l12 -47q20 -106 -12 -153q-25 -35 -66 -37q-31 -2 -65 16q-29 14 -60 43q-6 -10 -14 -16q-20 -20 -43 -21q-6 0 -12.5 3t-8.5 5l-4 3q-2 4 -4 7t-6 7l-12 24l-37 72l-74 152q-6 12 -14 26l-14 -41q-4 -14 -16.5 -20t-27 -2t-20.5 16t-2 27q14 49 35 100l-19 29l-47 78 q-20 8 -20 30l-35 58q-135 221 -150 305q-6 41 -2 80zM557 1047q-4 -27 2 -58q8 -43 47 -121q6 16 29 84q20 59 41 95q-33 31 -60 40q-29 12 -45 -2q-12 -10 -14 -38zM645 795l53 -88l4 -7q51 141 84 220q-29 39 -59 75q-12 -25 -27 -65q-31 -94 -49 -127q-2 -4 -6 -8z M750 625l41 -68q51 121 219 457l-74 -78q-8 -10 -22.5 -10t-26.5 10q-8 6 -10 18l-13 -28q6 -10 10 -19q6 -12 2 -26.5t-16 -20.5t-24 -4q-23 -57 -86 -231zM836 483q31 -51 45 -84l26 -51q10 143 84 254q6 10 17 14q170 500 360 725q10 10 24.5 12.5t24.5 -8t12 -25 t-8 -24.5q-117 -139 -221 -379.5t-176 -478.5q-8 -29 -39 -24q-8 -41 -10 -99q0 -14 -11.5 -23t-23.5 -9l14 -33l33 -64l4 7l13 16q-27 10 -23 37q8 59 20 119q4 16 23 24q-12 18 -2 37q199 338 283 569q10 29 26 92q18 66 31 101q6 14 18.5 19t26.5 1q10 -4 16 -12 q43 115 82 184q16 31 47 15q10 -6 17 -17q6 20 12 39q6 23 8 35l2 10q-6 23 -20 25q-16 4 -45 -8q-43 -18 -109 -72q-123 -100 -266 -246q2 -12 -4 -22q-14 -33 -136 -279t-175 -377zM1061 307q43 80 63 121q14 33 111 227l158 324l37 78q-12 -4 -23 0q-6 2 -10 6 q-14 -59 -27 -92q-90 -240 -287 -582q-6 -10 -18 -14q8 -12 6 -27zM1075 193q27 -27 51 -39q16 -10 29 -9q6 0 12 9q16 23 0 98q-2 12 -7 32.5t-7 26.5q-2 10 -2 17l-47 -84zM1182 389q10 4 20 4q12 -2 31 -8q4 0 27 -10q14 -4 23 -7t13 -3q6 12 2 45l-6 10q-2 4 -2 6v4 q0 2 -2 2v2v10v2v9v8l-2 26q-2 0 -8 3l-37 6q-4 2 -6 2q-37 -74 -49 -101zM1268 563l22 -4q10 -2 13 -2h14h39q14 0 24 -10q20 4 27 16q14 20 4 72q-6 39 -31 98l-12 35zM1403 840q12 4 29 2q6 0 24 -2h25q25 0 37 6q16 10 26 35q12 35 -6 75l-25 43l-20 31l-39 -82z M1536 1120q25 16 45 -6q35 -41 57 -51q14 43 -14 131q-2 2 -6 10q-8 10 -10 21q-4 27 16 41q29 18 57 10q9 -2 17 -8q12 25 -12 73q-14 29 -37 58l-2 -2q-12 -45 -43 -121q-27 -66 -68 -156z" />
<glyph unicode="&#x26;" horiz-adv-x="849" d="M387 674q2 59 33 114q-25 117 26 244q35 88 93 119q70 35 137 -27q16 -4 39.5 -14t25.5 -10q12 -4 18.5 -17.5t2.5 -27t-17.5 -19.5t-27.5 -2q-12 4 -29.5 12.5t-25.5 10.5q-10 0 -19 4q-29 6 -62.5 -20.5t-60.5 -77.5q-23 -47 -28 -93q47 35 100 19h2q68 16 96 -33 q25 -43 -6 -104q-2 -12 -6 -27q-25 -53 -98 -61q-49 -4 -68 2q-8 2 -14 4q-8 -61 12 -119q4 -14 12 -29l8 -4q18 -8 91 -35q35 -10 57 -20q33 12 70 41q10 8 24 6t23.5 -13.5t7.5 -25.5t-15 -25q-20 -14 -40 -26q8 -18 0 -35q-8 -12 -22.5 -15t-27 4t-24.5 13 q-55 -12 -105 4q-61 20 -98 82q-35 25 -55 59q-31 53 -29 142zM528 762q25 -20 47.5 -18.5t38.5 28.5q-2 10 -6 21q-8 12 -18 20q-37 -14 -62 -51zM549 236q-2 14 6 25t22.5 14.5t25.5 -5t15 -22.5l13 -72q14 -11 14 -29v-26v-8q0 -2 2 -9l4 -26q4 -29 -22 -39q-6 -4 -11 -6 q-20 -6 -34 8l-11 14l-6 25q-6 39 -14 119q0 6 2 12zM580 1569q-2 14 7 25.5t23.5 13.5t25.5 -7.5t13 -23.5v-2q18 -10 19 -31v-135v-29v-30v-2v-2h-4v-95q0 -14 -10.5 -24t-25 -10t-24.5 10t-10 24q0 190 -14 318z" />
<glyph unicode="'" horiz-adv-x="372" d="M221 1393q4 78 25 219v12q0 13 6 21v8q2 16 4 22t2 11q2 4 6 8q6 8 17 12q20 8 34 -8l11 -19v-6q2 -6 -2 -35q0 -8 -3.5 -31.5t-3.5 -35.5q2 -72 2 -158v-16q0 -12 1.5 -26.5t1.5 -22.5v-27v-6q-2 -8 -7 -12q-8 -14 -24 -19q-18 -2 -31 12l-8 13q0 2 -1 5t-1 7 q-2 16 -4 37q-27 6 -25 35z" />
<glyph unicode="(" horiz-adv-x="628" d="M254 831l8 58q2 29 6 59q8 59 37 137q2 2 5 12.5t3 12.5q2 8 4 11t5 7q4 6 10 11h4q25 61 82 82q14 4 27.5 -2.5t17.5 -19.5t-2 -26.5t-18.5 -17.5t-19.5 -8t-13 -12l-9 -17q-2 -4 -8 -24l-12 -33l-6 -17q-8 -45 -25.5 -117.5t-21.5 -80.5q-6 -147 26 -264 q35 -121 138 -263q39 -53 53 -69q4 -4 16 -14l8 -7h2v-2l2 -2q2 0 2 -2q6 -4 8.5 -15t-1.5 -20q-6 -14 -21 -20q-10 -2 -20 0q-4 0 -9 2l-2 2q-2 2 -4 2q-51 39 -92 84l-6 -6q-10 -10 -24.5 -8t-24.5 12q-63 74 -105 217q-53 188 -20 358z" />
<glyph unicode=")" horiz-adv-x="698" d="M406 1184q-4 14 3 26.5t20 16.5t25.5 -3t16.5 -20l31 -100q-2 4 0 8q0 8 2 14q6 10 16 17q14 8 33 0q18 -10 29 -35q6 -16 10 -41q2 -29 2 -72q23 -78 41 -166q66 -340 -94 -555l-6 -20l-11 -39l-4 -12q0 -2 -2 -4v-4l-4 -5q-2 -6 -8 -10q-8 -6 -21 -6q-16 0 -26 12 q-6 8 -10 21v16q-2 12 0 33q2 37 10 104q6 41 18 142.5t21 159.5q6 55 10 102q-6 49 -18.5 107.5t-22.5 91.5l-33 114q-23 82 -28 107z" />
<glyph unicode="*" horiz-adv-x="1460" d="M78 649q-2 25 12 58q23 47 80 114q47 55 102 107q25 23 43 37q20 16 31 22l12 4q14 8 35 15q-8 55 -6 186q-4 72 -4 143q0 80 6 131q4 31 10 52q8 31 25 43q37 31 86 16q18 -4 39 -18q14 -8 29 -21q55 -47 131 -156q31 -43 110 -168l12 -20q47 23 123 70l29 30 q37 37 53.5 47.5t22.5 12.5q20 6 37 0l16 12l31 18q6 4 10 6.5t6 4.5q4 0 8 2q14 2 25 -6q23 -14 16 -39q-2 -6 -6 -14.5t-14 -20.5q-12 -18 -39 -49l-21 -23q-6 -16 -14 -35q-18 -43 -80 -127q-68 -94 -82 -116q-14 -27 -20 -43q0 -5 -2 -9l8 -4l35 -28h2q18 -10 67 -43 q55 -35 136 -107l45 -41q96 -76 116 -94q2 -2 3 -2t6 -2l8 -6q14 -6 20 -15q2 -4 4 -6l6 -6q8 -6 15 -12q4 -4 6 -8q10 -14 4 -31q-8 -29 -45 -35h-27q-23 0 -63 17l-25 10q-55 6 -157 24q-285 51 -306 52q-8 0 -16 4q-23 -129 -51.5 -251t-48.5 -194q-12 -41 -23 -65 q-6 -14 -12 -25q-12 -18 -29 -22q-31 -6 -51 22l-6 -14q-8 -16 -16 -27q-10 -14 -23 -20q-16 -8 -33 -2q-18 6 -22 26q-2 10 0 25q2 6 3 11t1 7v2q0 55 16 238q2 27 19.5 182.5t21.5 237.5q-6 -2 -14 -4l-119 -58q-84 -43 -131 -57q-35 -10 -60.5 -10t-43.5 12q-16 -2 -29 2 q-39 12 -43 51zM193 680q39 16 98 47l74 39l69 41q33 20 41 24q25 14 43 -8v8q0 14 9.5 25.5t23.5 11.5t25.5 -9t11.5 -23q2 -37 0 -76q8 -16 10 -47q4 -29 2 -74q0 -8 -8 -197q-4 -94 -4 -149l18 49l103 279q8 37 10 53q4 20 22 28v3q6 14 19.5 19t25.5 1q20 -8 23 -31 q29 -2 59.5 -6t53 -8t58.5 -14.5t53.5 -14.5t57 -18.5t50 -17.5t56.5 -19t50 -18q-29 23 -69 61l-111 84l-12 10h-2q-2 0 -4 2q-2 0 -2 2q-4 0 -11 6l-35 25l-38 29l-93 67q-18 14 -14 35q-18 -6 -33 4q-12 10 -14 24.5t6 24.5l201 267l-19 -11l-26 -28q-41 -45 -62 -64 q-14 -14 -24 -22q-8 -6 -15 -9q-12 -8 -24 -6q-16 2 -31 19q-6 6 -16 20l-2 2q-4 -2 -6 -4q-14 -4 -27.5 1t-20.5 18q-41 100 -114 221q-45 70 -80 108q-25 27 -41 39q-6 2 -10 4q-8 -12 -15 -41q-14 -57 -22 -163q-2 -51 -4 -109q4 -51 8 -74q0 -2 18 -49q8 -20 11 -35 q6 -27 0 -43q-12 -29 -45 -43q-6 -23 -29 -24h-17h-6q-6 0 -8 -2h-2q-94 -68 -168 -201q-2 -2 -14 -25q-8 -10 -12 -18z" />
<glyph unicode="+" horiz-adv-x="1296" d="M111 1014q-29 135 24 194q47 51 148 33q72 -12 155.5 -57t139.5 -90q27 -23 59 -54l70 76l8 6q66 82 137 135l22 21q106 94 183 135q111 57 168 6q29 -27 26 -80q-2 -33 -16 -82q-10 -33 -27 -77l-8 -21q6 -63 -2 -106q-25 -111 -71 -222.5t-126.5 -268t-103.5 -206.5 l-18 -57q-18 -55 -35 -96q-23 -61 -43 -92q-12 -23 -27 -35q-23 -20 -49 -17q-18 4 -37 23q-12 12 -29 33q-25 31 -57 88l-33 57l-32 57q-14 27 -17 33l-108 107q-197 199 -248 336q-25 65 -31 147q-14 37 -22 74zM240 1069q-16 -74 6 -143q45 -139 211 -346l139 -172 q78 -96 109 -140l57 -59q4 -4 6 -8l10 26l15 39q-12 -2 -23 6q-12 6 -15 20.5t5 26.5q109 174 143 236q90 229 187 500q4 78 -23 135q-14 35 -33 47l-2 -2q-8 -12 -22.5 -14t-26.5 6q-8 6 -12 16q-23 -6 -47 -20q-14 -8 -29 -21l-129 -125l-12 -18q-27 -37 -47 -90l47 -51 q10 -10 10 -24.5t-10 -25.5q-20 -20 -45 -4q-16 -12 -37 -2q-12 -16 -35 -12q-14 4 -21.5 16.5t-5.5 26.5l8 29l-8 10q-94 96 -188 153q-82 49 -129 48q-41 -2 -53 -64zM713 160l2 -4q10 -14 18 -23l8 12l2 5q-18 -4 -30 10zM1085 1350h5q49 -6 79 -70q10 39 13 63l-2 23 q-23 20 -90 -14z" />
<glyph unicode="," horiz-adv-x="436" d="M207 -109l4 9q4 8 72 123q18 88 -39 202q-6 14 -2 27.5t16 19.5q23 12 41 -6q6 27 31 33q37 8 53 -33q4 -14 6 -37v-30v-13q0 -45 -6 -82q8 -145 -74 -213q-6 -6 -16 -8q-8 -10 -19 -20q-8 -8 -13 -11.5t-11 -5.5q-27 -6 -39 19q-8 12 -4 26z" />
<glyph unicode="-" horiz-adv-x="622" d="M178 698.5q0 14.5 10.5 24.5t24.5 10h8h8q6 4 17 6q6 2 16 2q14 0 37 -4q14 0 39 -4q49 0 88 -2q66 -2 96 -6l23 -4q6 0 12 -4q12 -6 16 -19q8 -23 -10 -39q-14 -12 -41 -14q-16 -2 -41 0q-23 2 -57 6v-4q-4 -14 -16 -22l-13 -4h-6h-2h-2h-4q-14 0 -41 2h-33 q-16 0 -26 12q-16 4 -27 8q-25 9 -35 21h-6q-14 0 -24.5 10t-10.5 24.5z" />
<glyph unicode="." horiz-adv-x="491" d="M303 106q2 20 19 39l2 2v7q4 14 15 22t26 6q66 -14 77 -55q12 -39 -26 -72q-31 -27 -66 -20q-25 4 -39 24q-10 18 -8 47z" />
<glyph unicode="/" horiz-adv-x="708" d="M256 135q0 131 31.5 288t66.5 263.5t95 269.5l55 152q4 20 10 61q8 61 14 91q8 27 35 26l8 25q8 31 15 43q8 16 17 23t22 7q14 0 24 -10q8 -8 13 -20q4 -25 -3 -70q-4 -39 -16 -98q-18 -94 -61 -250l-45 -170l-48 -166q-18 -66 -24 -98q-8 -35 -47 -252q-4 -20 -10 -92 q-2 -29 -5 -39q-2 -4 -2 -8q-2 -10 -12 -17q-16 -16 -35 -8q-12 6 -18 16q-4 6 -6 13l-4 20q0 -14 -10.5 -24.5t-25 -10.5t-24.5 10.5t-10 24.5z" />
<glyph unicode="0" horiz-adv-x="976" d="M262 676q-41 229 4 418q16 68 43 120q8 27 17 50q8 20 28 22q57 70 140 92q25 8 49 8q141 31 239 -108q88 -125 121 -340q41 -154 24.5 -340t-96.5 -311q-43 -68 -100 -101.5t-115.5 -31.5t-117.5 26q-82 37 -144.5 116t-81.5 173q-14 78 -10 207zM332 682l4 -20 q47 -231 151 -338q49 -53 105 -60q59 -8 123 37q82 57 114 240q33 180 7 379l-2 6q-16 70 -41 127q-47 117 -113 188q-63 74 -129 76q-6 -2 -14 -4q-43 -16 -99 -82q-14 -16 -45 -60l-35 -47q-25 -119 -24 -311q0 -16 -2 -131z" />
<glyph unicode="1" horiz-adv-x="790" d="M598 1260q-2 14 6 25t22.5 14.5t26 -5t15.5 -22.5l2 -21q23 -2 30 -22q27 -76 36 -170t7 -161t-9 -177.5t-9 -155.5q0 -25 2 -69q0 -6 3 -37t3 -47q6 -113 -14 -170q-4 -12 -8 -19q-10 -12 -25 -14q-25 -4 -37 16q-6 8 -6 23q-2 6 -2 18v45q0 39 -2 68q-2 37 -1 103.5 t-1 101.5q-2 57 -4 166.5t-4 178t-9.5 162t-21.5 169.5z" />
<glyph unicode="2" horiz-adv-x="1349" d="M369 1227.5q-4 13.5 2 25.5q29 66 75 98.5t117 45.5q147 25 230 -105q31 -49 51 -123q49 -82 57 -159q10 -106 -20 -269q-14 -178 -68 -360q-4 -14 -59 -133l-33 -70h2q18 -4 55 0q61 6 176 31l64 14q47 12 59 15l15 2l49 10q53 10 76 14q37 4 55 2q4 -2 6 -2 q14 -4 20 -16q8 -18 0 -35q-4 -6 -12 -12q-4 -2 -9 -4t-15 -2q-4 -2 -14.5 -3.5t-12.5 -1.5q-66 -8 -129 -18l-74 -16l-28 -9l-140 -32q-84 -16 -131 -19q-33 -2 -51 2q-41 12 -43 47q0 6 2 17q2 4 4 12l2 6v19q4 29 15 69q14 66 51 178q14 47 39.5 121t39 117t17.5 61l2 7 q10 156 -12 292q-8 55 -19 97q-37 55 -84 92q-121 92 -215 -2q-23 -23 -47 -2l-2 -4q-6 -14 -19.5 -18.5t-26.5 1.5t-17 19.5z" />
<glyph unicode="3" horiz-adv-x="1236" d="M367 1313q27 74 103.5 125t168.5 67q94 18 182 -8.5t135 -101.5q76 -117 48 -291v-35q-4 -96 -29 -203l-2 -8h10q111 -16 164 -108q74 -131 22 -269q-25 -125 -127 -221q-80 -76 -186 -119t-217 -43q-14 0 -24.5 10.5t-10.5 22.5q-4 6 -6 14q-2 14 6.5 25.5t22.5 15.5 q16 2 57 9.5t60.5 12.5t49 14t52.5 22q154 84 227 200q18 29 29 56q14 74 -6 149q-12 41 -53.5 71t-98.5 40q-16 -47 -35 -84q-49 -94 -108 -109q-35 -10 -60 6q-16 10 -24 29q-10 -2 -21 2q-29 8 -34 41q-4 14 -3 33q4 63 48.5 100t109.5 51l27 39q70 113 90 240 q0 59 -12 84q-25 51 -66 79.5t-106 49.5q-139 41 -273 -29q-23 -12 -41 6q-2 -4 -4 -10q-4 -12 -17.5 -18t-26.5 -2t-19.5 17t-1.5 28zM512 1382q129 43 258 4q98 -29 154 -79q-10 27 -25 51q-35 53 -101.5 73.5t-146.5 6.5q-78 -15 -139 -56zM778 633h6q29 8 64 76 q12 25 24 57h-16l-43 -59l-33 -43q-4 -18 -2 -29v-2z" />
<glyph unicode="4" horiz-adv-x="1107" d="M231 676q0 37 11 92q14 78 51 190q41 201 80 306q6 14 18 19t27 1q31 76 49 109q16 31 46.5 14.5t14.5 -47.5q-66 -123 -153 -379l-15 -39v-8q-20 -106 -24 -178q-2 -39 0 -64q2 -14 6 -22q6 -2 14 -4q25 -6 68 -9q72 -6 205 -6h55q0 53 -3 149.5t-3 131.5q-2 80 0 149.5 t-5 149.5t-26 139q-4 14 2 26.5t20.5 16.5t27 -2t16.5 -20q8 -27 14 -56q10 10 23 13q14 2 25 -7.5t13 -23.5q27 -299 41 -666q131 0 166 -4q14 -2 22.5 -12t8.5 -23q14 0 24.5 -10t10.5 -24.5t-10.5 -24.5t-24.5 -10q-10 0 -195 -6q4 -100 7 -220q0 -33 8 -106.5t8 -114.5 q0 -14 -10 -24.5t-24.5 -10.5t-25 10.5t-10.5 24.5v2v2q-31 -4 -36 27q-43 170 -58 408h-26h-29q-135 0 -221 12q-115 16 -158 57q-23 23 -25 72zM750 885q4 -211 4 -234h4h2q-6 123 -10 234zM760 535q2 -35 4 -66q0 33 -2 66h-2z" />
<glyph unicode="5" horiz-adv-x="1017" d="M215 1149v25q0 6 2 10q2 10 6 18q2 12 2 21q0 10 2 16q4 14 13 23q16 16 49 24q27 6 65 10q66 8 160 7q123 25 184 28q14 0 25.5 -9t11.5 -24v-8q41 -6 58 -12q14 -6 19 -19.5t0 -26.5t-18.5 -18.5t-25.5 -1.5q-18 8 -88 15q-76 6 -160 6q-25 -4 -47 -10 q-78 -16 -131 -35q-31 -10 -49 -19q0 -35 2 -88q2 -20 2 -45q4 -27 5 -35t5 -36q2 -27 4 -41.5t4 -24.5l50 29q88 51 124 59q33 6 66 8q135 25 248 -75l2 -2q76 -53 121 -135.5t45 -176.5q0 -82 -35 -157l-4 -17q-37 -135 -139.5 -214t-255.5 -56q-70 12 -172 55q-2 2 -9 4 q-12 4 -16 4q-14 6 -23 15q-12 12 -12 28.5t14 28.5q23 18 58 8q8 -2 14 -4t10 -2q133 -20 168 -20q94 0 176 54t123 138q25 109 -3.5 217.5t-104.5 175.5q-90 63 -197 62q-49 -10 -102 -43q-51 -31 -109 -88l-37 -35l-12 -12q-6 -4 -10 -7q-10 -6 -23 -4q-29 4 -34 33 q-2 10 0 25q0 2 2 8l2 4v2v10l-2 8v2q-2 12 -2 62q-2 20 -3 33v10v4q-4 72 -4 92q-4 31 -8 57q-4 37 -6 62z" />
<glyph unicode="6" horiz-adv-x="1175" d="M199 1206q2 14 12 23.5t25 9.5q8 0 14 -4v37q0 14 10 24.5t24.5 10.5t24.5 -10.5t10 -24.5q0 -88 -18 -244q-20 -178 -25 -225q4 -35 9 -66q41 -252 143 -366v10q0 100 33 180t87 130t118.5 79t134.5 33q147 10 241 -70q55 -45 74 -110q10 -29 12 -64q4 -70 -38 -143 q-45 -94 -131.5 -162t-188.5 -94q-117 -31 -225 -6l-2 -2q-10 -10 -24.5 -10.5t-24.5 10.5q-12 12 -21 24q-96 41 -158 127q-127 180 -110 485q2 6 2 13q-23 197 -8 405zM498 313q12 -6 26 -14q14 246 178 381q39 33 91 53q-121 -14 -208 -103t-87 -249v-68zM592 272 q84 -25 172 -12q98 14 197 107q41 39 67 79q14 33 21 66q12 49 2 90q-25 68 -107 80q-47 8 -102.5 -7.5t-93.5 -47.5q-152 -126 -156 -355z" />
<glyph unicode="7" horiz-adv-x="827" d="M221 1380.5q0 14.5 10.5 24.5t24.5 10t45 2l76 4l80 6q76 2 121 3q27 -2 47 -5q25 -4 39 -14q49 -31 57 -141v-17q6 -20 8 -41q6 -61 7 -125.5t-6 -139.5t-13 -124t-19 -133q0 -20 2 -41q14 -346 76 -450q6 -12 3 -26.5t-15 -22t-26.5 -4t-22.5 15.5q-27 45 -43 121 q0 -88 -17 -146q0 -6 -2 -8q-6 -14 -20 -18q-23 -8 -39 10q-4 6 -6 12t-4 17q0 4 -2 28.5t-2 149.5q0 276 12 401q2 18 22 141l9 60q-2 160 -7 221q-2 18 0 53q2 53 2 56q2 25 0 43q-6 6 -14 12q-31 23 -78 31l-6 -3l-80 -16q-12 -4 -23 -1t-24.5 2t-21.5 -11h-6h-15 q-12 -2 -22 4q-18 8 -23 27q-35 -2 -49 -2t-24.5 10t-10.5 24.5z" />
<glyph unicode="8" horiz-adv-x="1284" d="M246 780q-12 82 10 170l12 47q47 178 146 269q55 51 112 53q29 2 58 -8q172 59 340 -35q213 -119 225 -279q8 -78 -35 -157q-39 -168 -223 -279q92 16 172 0q135 -29 168 -133q25 -78 -29 -166q-14 -55 -51 -108q-92 -129 -244 -187q-174 -66 -309 17q-39 25 -69.5 71.5 t-36.5 94.5q-13 83 20 159q10 96 61 172q-23 -2 -43 0q-197 16 -260 189q-18 51 -24 110zM315 788q23 -141 166 -206q57 -27 125 -29q29 4 58 12q31 18 65 27q80 39 205 143q78 66 115 129q18 94 -25 180q-35 68 -94.5 108t-141 37t-161.5 -59q-70 -49 -156 -137 q-10 -10 -24.5 -10t-24.5 10.5t-10 24.5t10 24q88 92 164 146l32 20q-14 0 -22 10.5t-18 16.5q-123 -53 -201 -182q-35 -57 -51 -119q-16 -76 -11 -146zM580 238q10 -102 77 -146q82 -51 230 2q104 39 200 133q29 29 50 62q10 49 -11 86q-49 92 -266 102q-8 0 -14 4 q-10 -2 -21 -6q-186 -57 -245 -186q-2 -27 0 -51zM649 1225q61 29 121 32q-59 10 -117 0q6 -16 -4 -32zM662 477l14 8h-4q-6 -4 -10 -8z" />
<glyph unicode="9" horiz-adv-x="1132" d="M153 861q3 79 25 157q51 164 170 276q121 115 275 109q59 -2 86 -10q43 0 88 -15q195 -55 262 -215q43 -102 22 -225q2 -47 -1 -98.5t-10 -121t-9 -91.5q-14 -182 -17 -260q12 -74 31 -129q4 -14 -2 -27.5t-18 -17.5q-6 -2 -11 -3v-22v-27q-2 -10 -2 -14v-4q-2 -8 -6 -12 q-10 -12 -24 -15q-18 -2 -31 13l-6 14q-2 2 -2 4v4q-6 76 -2 193q0 18 2 63q-10 72 -12 174q-2 16 -3 35q-84 -84 -200 -125q-119 -41 -236 -31q-74 6 -125 29q-12 4 -28 10q-78 35 -129.5 95.5t-70.5 134t-16 152.5zM295 672q23 -57 65 -97q29 -27 64 -40q16 -6 31 -9h26 h11q-20 6 -43 15q-99 43 -154 131zM307 944q-12 -115 30 -206t140 -132q121 -53 245 0t183 176q18 41 29 148v63q-2 23 0 33q2 8 6 14q9 13 23 17v4q2 10 6 18t10 15q-35 80 -99.5 136t-142.5 77q-4 0 -8 2q-53 12 -106 6q-84 -20 -158 -86t-125 -160l-10 -22 q-18 -51 -23 -103z" />
<glyph unicode=":" horiz-adv-x="516" d="M293 752q0 63 18 129q2 12 15.5 19t27.5 3q11 -2 17 -12q25 16 49 10q27 -6 39 -37q8 -20 8 -47q2 -47 -14 -98q-6 -25 -17 -43q-16 -25 -37 -33q-29 -10 -51 -4q-25 8 -39 31q-18 29 -16 82zM299 174q0 4 4 8q-2 2 -2 4q-2 14 7 26.5t21.5 14.5t22.5 2q12 12 33 21l12 4 q6 2 9 4q14 6 27 2t19.5 -17.5t2.5 -26.5t-17 -19l-8 -4q0 -2 2 -7q29 -20 35 -49q12 -53 -43 -96q-20 -16 -41 -16q-27 0 -41 22q-12 18 -14 51q-14 8 -23 25q-14 29 -6 51zM362 750q-2 -33 7 -43h4q0 2 2 6q6 10 12 26q10 39 10 76v8q-12 -12 -24 -30l-8 -9q-2 -18 -3 -34 z" />
<glyph unicode=";" horiz-adv-x="505" d="M182 -100q-2 12 4 22q2 6 9 12q2 2 4 3l2 2h2v2h2l8 4l25 12l4 2q4 10 12 16q33 23 53 41q8 12 14.5 22.5t10.5 27.5l6 22q2 8 6 27l4 26q0 6 2 33t2 33q3 18 21 26q6 29 26 39q12 6 21.5 4t15.5 -6l4 -4q4 -4 6 -8q0 -2 1.5 -3t1.5 -3v-2l2 -2q0 -4 2 -8q2 -10 4 -25 q4 -43 0 -84q-14 -137 -123 -213q-35 -25 -47 -31q-20 -10 -37 -14q-29 -8 -51 4q-12 8 -17 23zM250 840q0 37 2 53q6 41 33 63q33 27 63 21q4 0 8.5 -1t8.5 -3q20 -8 34 -29q12 -14 21 -37q61 -82 16 -168q-4 -16 -8 -30q-8 -33 -30.5 -54.5t-57.5 -11.5q-37 8 -55 51 q-4 14 -9 31q-25 41 -26 115zM338 772q2 -10 4 -18v-2q6 -6 18 4q4 2 9 8q2 29 0 59q-5 28 -11 51l-4 5l-4 4q-6 -8 -8 -17q-10 -29 -4 -94z" />
<glyph unicode="&#x3c;" horiz-adv-x="1482" d="M465 535q-4 18 4 36q10 23 39 52q2 8 8 14q4 6 10 12t21 17q20 14 67 41l78 45l94 53q12 6 19 10l6 8q4 0 6 2t8 4l68 31q72 35 115 51q35 12 55 19q18 4 31 2q20 -4 28 -22.5t-2 -35.5q-6 -12 -20 -22q-10 -8 -27 -16q-25 -14 -74 -39l-198 -95q-102 -51 -156 -88h2 q74 -14 197 -24q217 -20 336 -21q14 0 23 -9t11 -21h13q76 2 125 0h12q16 2 20 2q16 0 27 -4q20 -6 25 -27q4 -16 -6 -33q-10 -14 -33 -20q-14 -4 -35 -8q-39 -6 -100 -9q-119 -6 -283 0q-170 6 -285 21q-57 8 -92 16q-78 10 -110 27q-20 10 -27 31zM584 555h2q8 -4 24 -8h4 q6 -2 13 -2q12 -2 22 -2l-14 2q-29 6 -51 12v-2z" />
<glyph unicode="=" horiz-adv-x="1071" d="M297 361.5q-2 13.5 7 25.5t24 14q31 4 67 9q8 14 25 16q188 20 387 10q18 0 57 -4h70h10h14q10 0 15 2h18q2 -2 6 -2q6 0 13 -4q12 -10 14 -25q4 -16 -8 -28l-15 -10q-2 0 -4 -1.5t-4 -1.5q-47 -8 -135 0q-51 0 -88 -2q-41 -2 -106 -4q-76 -2 -116 -4t-100.5 -7 t-111.5 -13q-12 -2 -24.5 7t-14.5 22.5zM330 766q6 12 18 16q6 2 10 4h17q14 2 43 0q20 0 69.5 -2t65.5 -2q27 0 51 -2q14 2 31 4q43 4 215 4h6h10h8h13h4q6 0 12 -4q14 -6 17 -24.5t-9 -30.5q2 -6 2 -12q0 -14 -10 -27q-8 -10 -22 -14q-10 -2 -27 2l-14 2l-6 2 q-227 0 -306 8q-2 0 -16 1t-35.5 3t-40.5 4q-37 4 -59 9q-14 2 -22.5 5t-14.5 9q-25 18 -10 45z" />
<glyph unicode="&#x3e;" horiz-adv-x="1267" d="M381 397.5q0 14.5 10 24.5t25 10h55q-12 10 -14 24.5t7 26t23 13.5q113 16 301 65q195 53 285 72q-31 16 -72 35q-51 18 -124 37q-29 8 -88.5 22t-104.5 26.5t-84 24.5q-37 10 -84 33q-72 33 -78 35q-2 2 -16 4q-10 2 -12 2q-4 0 -7 2q-6 2 -10 6q-12 10 -12 25 q-2 18 14 30l15 7h4h4q45 0 178 -37q131 -37 266 -86q94 -35 166 -68q80 -29 141 -63q0 -2 5 -4q10 -2 14 -7q12 -6 18 -14q12 -17 8 -37q10 -20 7 -43q-4 -12 -15 -20q-2 -2 -7 -5t-13 -6q-10 -4 -27 -8q-10 -2 -26 -6l-13 -2q-47 -14 -190 -63q-121 -43 -197 -62 q-127 -29 -317 -29q-14 0 -24.5 10.5t-10.5 25zM561 436q84 8 156 25q74 16 190 57l49 17q-31 -6 -149 -39q-158 -43 -246 -60z" />
<glyph unicode="?" horiz-adv-x="1306" d="M291 1194q0 37 9 70.5t19 54.5l33 57q76 121 207 188.5t270 65.5q147 -2 260 -85t148 -240q23 -109 25 -215.5t-31 -223t-105 -194.5q-27 -41 -61 -68q-23 -18 -47 -31q-68 -49 -141 -71q-12 -4 -76 -8q-23 -2 -35 -5q-4 0 -6 -2v-2q-2 -10 -2 -26v-33q2 -23 2 -29 q0 -14 -10.5 -24.5t-24.5 -10.5q-29 0 -35 27q-6 0 -14 2q-12 4 -19.5 16.5t-3.5 26.5q0 4 1 11.5t1 20.5t2 23q4 57 35 82q20 14 72 21q12 2 42 5t44 5q82 8 131 31q37 29 82 74l8 8q41 66 55 168q18 127 -6 274q-16 102 -94 182q-78 82 -185.5 114t-207.5 3 q-35 -10 -61.5 -30.5t-73.5 -71.5t-56 -60q-10 -10 -24.5 -10t-24.5 10l-4 4q-29 -51 -29 -104q0 -14 -10 -24.5t-24.5 -10.5t-24.5 10.5t-10 24.5zM662 1534q170 27 326.5 -73.5t195.5 -266.5q-6 47 -17 94q-29 133 -120 203q-92 68 -218 70q-85 2 -167 -27zM692 72 q8 27 41 34q4 3 8 3q12 16 33 14h2h12q25 2 41 -14q41 -41 17 -84q-16 -31 -58.5 -42.5t-70.5 7.5q-43 27 -25 82z" />
<glyph unicode="@" horiz-adv-x="1003" d="M217 815q6 98 43 184q66 160 201 199q68 39 136.5 29t120.5 -45t95 -90q12 -14 23 -29q16 -20 30 -45q4 -6 6 -14q23 -41 33 -84q31 -100 -6 -156q-10 -16 -31 -16q-16 -2 -30 12q-2 2 -7 8q-10 -16 -24 -31q-18 -18 -41 -30q-16 -10 -37 -15q-55 -14 -117 29 q-57 41 -61 113.5t39 119.5l2 2q29 66 78 86q23 10 47 7l-17 16q-74 63 -153 59q-90 -2 -160 -100q-53 -74 -61 -225q-8 -135 39 -236q51 -90 141 -127l2 -2q70 -23 146.5 -3t142.5 79q10 8 24.5 8t24.5 -12q4 -4 6 -10l8 8q10 8 24.5 7t24.5 -11q12 -14 6 -33q33 4 39 -27 q4 -14 -3 -26.5t-21 -14.5q-166 -45 -180 -47q-168 -68 -306 15q-47 26 -84 71q-88 76 -124 199q-25 80 -19 178zM641 829.5q8 -43.5 41 -59.5q24 -10 47 -2q12 10 21 33q14 45 18 129q-74 29 -117 -12q-18 -45 -10 -88.5z" />
<glyph unicode="A" horiz-adv-x="737" d="M102 369v10q0 203 76 438l21 60l6 18q63 201 149 311q70 88 148 113q50 26 100 26q33 0 66 -12q12 -4 18 -17q4 -8 4 -16q0 -4 -2 -10q-4 -14 -17.5 -20t-27.5 -2h-2q0 -2 2 -4q0 -10 2 -33q0 -6 2 -35t4 -39q7 -79 7 -157q0 -52 -3 -105q-20 -299 -39 -399 q25 -178 72 -289q3 -9 3 -16q0 -17 -17 -27l4 -12q4 -14 -2 -27.5t-19.5 -18t-27 2t-17.5 18.5q-25 74 -43 152q-41 -92 -84 -152q-51 -70 -104 -92q-27 -12 -53 -12q-24 0 -47 10q-33 2 -60 20q-117 76 -119 316zM195 281q25 -121 90 -170q4 -4 8 -7q25 4 63 33 q131 104 185 334q-8 82 -11 174q-8 111 -8 213q0 218 35 399q-14 0 -29 -4q-47 -27 -98 -88q-94 -115 -166 -311q-49 -162 -67 -330q-10 -88 -9 -151q-1 -56 7 -92z" />
<glyph unicode="B" horiz-adv-x="827" d="M76 1398.5q0 14.5 12 24.5l10 9v16q0 14 10.5 24.5t24.5 10.5t25 -10q14 8 30 16q96 65 192 65q16 0 32 -2q53 -8 94 -36q16 -6 31 -17q70 -49 81 -149q5 -47 5 -94v-15q-2 -166 -119 -393q-12 -27 -47 -78q10 2 18 4q26 4 49 3q83 0 129 -44q20 -20 37 -47 q70 -57 86 -145q6 -34 6 -67q0 -76 -28 -154q-40 -112 -125 -191q-53 -51 -117 -79q-61 -27 -133 -26h-5q-75 1 -147 37q-16 2 -24 13q-6 -2 -10 -2q-14 -2 -25.5 7t-13.5 23q-10 102 -15 279q-6 233 -8 274q-4 66 -12 220.5t-13.5 268t-7.5 220.5q-8 2 -14 10 q-8 10 -8 24.5zM174 1386q12 -82 20.5 -182t12.5 -164l12 -188q8 -127 10 -170q2 -35 8.5 -243t22.5 -316q23 -12 47 -21q2 14 11.5 23.5t23.5 9.5t47 -2t47 -2q49 0 72 12q51 29 92 99.5t59 158.5q11 53 11 99q0 81 -33 141q-29 20 -66 33q-51 18 -109 18q-21 0 -42 -2 q-14 -2 -21 -4q-8 -2 -14 0h-2q-18 -4 -35 -8q-2 0 -6 -4l-2 -2q-4 -2 -7 -3t-5 -3q-14 -8 -27 -9q-29 -2 -41 23t2 47q8 10 21 18q10 4 16 9l4 2q70 66 113 129q127 182 137 358q0 27 -4 53q-14 113 -78 160q-31 12 -73 12h-13q-78 -2 -162 -41q-26 -18 -49 -41z" />
<glyph unicode="C" horiz-adv-x="727" d="M172 594v15q0 134 35 282q8 37 20 72q23 76 52 135q47 100 110 162q62 61 120 61q20 0 40 -8q10 6 21 6h6q14 -2 22 -14q14 -20 0 -41q0 -10 -6 -19q-14 -18 -37 -14q-63 -45 -100 -75t-80 -78t-68 -99q-8 -19 -14 -39q-10 -31 -19 -66q-12 -63 -12 -126q0 -127 49 -259 q47 -131 134 -213.5t204 -93.5q13 -2 23 -13q8 -9 8 -21q0 -18 -14 -28q-9 -7 -20 -7h-5q-6 0 -14 2q-35 -15 -76 -15q-70 0 -158 43q-215 109 -221 451zM266 418q41 -147 150 -207q-93 78 -150 207z" />
<glyph unicode="D" d="M180 645q-4 25 -4 48q0 53 19 100q57 135 243 143q13 1 26 1q25 0 48 -3h18q106 0 211 -43q0 117 -2 186l-10 199q-6 156 -6 240q0 14 10 24t25 10q6 0 12 -2q0 12 8 23.5t21 13.5h5q12 -1 22 -7q12 -8 14 -22q8 -57 12 -141q0 -14 1 -41.5t1 -50.5t2 -43 q14 -252 14 -669v-107q6 -6 11 -15q5 -10 5 -18q0 -15 -16 -25q-2 -211 -2 -299q0 -23 -20 -30q4 -14 -2 -26.5t-20 -16.5q-6 -2 -12 -2q-8 0 -16 4q-12 6 -16 20q-16 53 -16 142v32v31q-75 -21 -144 -21q-98 0 -184 42q-148 72 -217 206q-6 10 -10 21q-23 35 -29 76 q-2 10 -2 20zM250 651q6 -33 20 -67q45 -68 174 -105q74 -20 158 -25q25 -1 46 -1q51 0 81 8q10 2 23 6q-11 120 -11 321q-104 66 -229 76q-145 -6 -227 -110q-35 -45 -35 -103zM410 418q98 -67 214 -67q66 0 138 22q-2 12 -4 22l-13 -4q-37 -8 -90 -8q-27 0 -57 2 q-88 4 -174 29z" />
<glyph unicode="E" horiz-adv-x="749" d="M-56 906q12 9 25 7q119 -12 154 -14l20 2q4 80 17 152q6 49 14 94q25 121 72 196q35 55 80 84q39 31 82 41q22 4 43 4q63 0 104 -42q43 -45 53 -132q2 -21 2 -43q0 -49 -10 -103q-14 -76 -39 -122q-57 -100 -140 -140t-198 -52q2 -37 8 -64q16 -94 93 -309q4 -10 10 -33 q6 -25 10 -35q10 -35 21 -43q8 -8 43 -6q10 0 34.5 2t32.5 2q51 2 80 9.5t55 31.5q6 4 11 8l16 29q6 12 20.5 16.5t26.5 -2t16 -20.5q2 -5 2 -11q0 -8 -4 -16q-49 -92 -86 -137q-70 -80 -153 -86h-11q-34 0 -78 10q-50 12 -81 37q-84 63 -123 262q-27 140 -27 303v43h-10 q-41 -2 -68 -6q-20 -1 -32 15l-68 6q-13 2 -23 13q-8 9 -8 21q0 17 14 28zM221 913q18 12 53 58q70 90 109 135q14 16 39 39l39 37q41 39 53 71q10 23 10 43q0 30 -21 56q-28 34 -71 35q-13 0 -26 -3q-20 -4 -39 -14q-51 -43 -88 -139q-31 -80 -50 -189q-8 -63 -8 -129z M229 520l4 -24q35 -172 97 -222q20 -14 58 -23q31 -7 56 -7h11q45 4 86 43q-25 -4 -66 -4q-6 0 -26 -2q-25 -2 -41 -2h-9q-52 0 -80 22q-27 20 -43 76q-4 10 -10 37q-6 20 -8 26zM330 928q111 33 170 135q18 33 30 90l-22 -23l-39 -36l-33 -33q-39 -45 -106 -133z" />
<glyph unicode="F" horiz-adv-x="704" d="M68 492q2 14 13 23t25 7q25 -2 56 -4q8 23 33 23h81q-22 253 -22 431q0 55 2 103q-1 41 -1 82t1 82q2 106 27 223q16 72 34 121q27 63 62 88q24 16 48 16q12 0 24 -4q20 -6 47 -30q23 -20 39 -49q23 -27 41 -70q33 -82 53 -227q26 -179 26 -383v-15q0 -14 -10 -24.5 t-24 -10.5q-10 0 -21 7q-10 -12 -27 -13q-14 0 -24 10.5t-10 24.5q0 27 2 107t2 132t-4 142q-10 195 -60 281q-16 16 -30 18v-2q-8 -8 -19 -29q-20 -37 -41 -104q-39 -123 -49 -191q-12 -88 -16 -182q2 -104 10 -297l12 -235q80 2 125 2q14 0 24.5 -10.5t10.5 -24.5 q0 -12 -8 -21q12 -14 10 -30q-2 -14 -14.5 -22.5t-26.5 -6.5q-50 8 -113 12q23 -248 29 -381q0 -23 -20 -32q-4 -25 -29 -27h-5q-11 0 -21 7q-12 9 -13 24q-6 47 -9 104.5t-4 98t-2 108.5t-1 100q-133 4 -183 9q-14 2 -23 13q-7 9 -7 20v6z" />
<glyph unicode="G" horiz-adv-x="942" d="M104 1122q20 82 101.5 149.5t181.5 96.5q52 19 111 19q18 0 36 -1q79 -8 128 -51q-6 29 -11 56q-2 16 8 28v2q-2 12 6.5 24.5t21.5 15.5q4 1 7 1q9 0 18 -6q13 -8 17 -22q6 -27 12 -72q111 -326 144 -678q12 -108 12 -200q0 -107 -16 -193q-33 -199 -144 -283 q-6 -4 -14 -10l-16 -12q-76 -59 -155 -59q-60 0 -122 34q-8 4 -14 8q-76 37 -129 109q-51 74 -64 166q-2 14 7.5 25.5t23.5 13.5t25.5 -7.5t13.5 -23.5v-4q18 -4 24 -21q72 -156 134 -196q14 -8 28 -13q6 2 13 2q115 0 170 25q53 41 81 121q17 50 17 211v18q-2 135 -21 379 l-2 27q-78 -49 -186 -60q-33 -5 -66 -5q-93 0 -184 38q-109 45 -167 135q-39 61 -39 136q0 37 9 77zM174 1018q12 -80 85 -134.5t177 -68.5q35 -5 69 -5q17 0 34 1q72 10 118 45q41 33 66 102l-16 138l-23 114q-27 -4 -37 23q-8 20 -20 37q-57 36 -134 36h-4 q-79 -1 -155 -36q-31 -12 -55 -31l-13 -8q-96 -73 -96 -172q0 -20 4 -41z" />
<glyph unicode="H" horiz-adv-x="690" d="M86 1538v5q0 15 10 26q6 27 33 28q14 0 25.5 -9t11.5 -23q0 -16 2 -33q2 -6 4 -14q6 -20 16 -70q10 -63 15.5 -139t8.5 -168t5 -135q2 -34 2 -75q0 -68 -6 -157q0 -16 -3 -64t-5 -73l12 25q78 142 196 142q9 0 17 -1q94 -8 148 -98q39 -70 55 -189q8 -60 10 -126 q1 -33 1 -70t-1 -78q-2 -82 -2 -84q0 -27 -27 -33q-8 -20 -30 -21q-14 0 -24.5 10.5t-10.5 24.5q0 203 -29 332q-23 98 -59 147q-33 45 -77 45q-6 0 -13 -1q-53 -6 -99 -62q-20 -25 -36 -90q-25 -98 -33 -268q0 -10 6 -90q1 -18 1 -34q0 -47 -9 -73q0 -4 -2 -8 q-6 -12 -21 -17q-8 -3 -15 -3q-18 0 -28 20q-2 6 -3 11t-1 15v15v12v14q-8 2 -12 9q-4 4 -6 10q-2 4 -2 8q-2 6 -5 14q-2 14 -4 41q-6 49 -10 88q-4 44 -5 92q0 24 -0.5 54t0.5 66q1 72 1 92q0 106 10.5 304.5t10.5 358.5t-23 297zM397 731q70 -4 121 -69l12 -21 q-6 16 -14 29q-35 59 -90 63q-5 1 -10 1q-10 0 -19 -3z" />
<glyph unicode="I" horiz-adv-x="374" d="M78 1503q-4 13 -4 24q0 19 10 33q16 24 55 27q17 2 35 0q18 23 35 33q24 18 46 18q7 0 13 -2q27 -6 43 -37q10 -18 15 -47q4 -24 4 -50t-4 -54q-2 -27 -11 -45q-10 -29 -30 -39q-23 -8 -54 0q-23 8 -47 22q-47 31 -80 72q-18 25 -26 45zM131 518q2 29 2 109q2 47 10 114 l13 119q4 47 4 107.5t-10 111.5q-2 14 6 26.5t22.5 14.5t26.5 -6q-2 59 -10 109q-2 14 6 26.5t22.5 14.5t26.5 -6.5t14 -22.5q8 -53 9 -119v-33q0 -47 -2 -85q-3 -50 -9 -121.5t-8 -110.5q-4 -80 -6 -177t-2 -165t1 -181.5t1 -168.5q0 -14 -10.5 -24.5t-24.5 -10.5 q-25 0 -33 22q-25 6 -26.5 33t-7 104.5t-7.5 106.5t-6 107q-3 52 -3 81q0 15 1 25zM147 1518q4 -6 11 -17q27 -31 63 -55q16 -10 31 -14q4 10 6 26q3 18 3 36q0 24 -5 46q-2 16 -6 25q-4 -5 -10 -9q4 -8 2 -18q-4 -12 -16.5 -20.5t-26.5 -6.5l-2 2q-14 -4 -29 5q-12 2 -21 0 z" />
<glyph unicode="J" horiz-adv-x="772" d="M88 637q-1 18 -1 36q0 106 41 195q48 105 163 162q76 39 203 43l-13 49q-37 137 -47 226q-2 14 7.5 25t23.5 13h4q0 14 9 23.5t22 11.5q14 2 25.5 -7t13.5 -23q8 -90 39 -267l6 -39q66 10 98 19q14 2 26.5 -5t16.5 -22q1 -4 1 -9q0 -14 -11 -24v-6q0 -14 -10.5 -24 t-24.5 -10q-18 0 -82 2q14 -86 20 -152l3 -27q29 -166 43 -399q3 -51 3 -93q0 -69 -8 -112q-12 -61 -41 -100q-12 -25 -28 -45q-34 -42 -84 -42t-115 42q-88 55 -143 133q-63 90 -109 203q-43 113 -51 223zM158 641q12 -172 116 -342q-14 37 -26 80q-33 119 -43 244 q-4 45 -4 81q0 65 12 103q18 74 51 123q-107 -87 -107 -252q0 -18 1 -37zM275 628q10 -118 40 -231q35 -125 84 -194q48 -68 101 -68h6q33 2 53 25q23 53 25 141q1 14 1 31q0 34 -3 78q-6 98 -7 100q-4 98 -24 309q-6 45 -16 88q-9 41 -23 94q-47 -8 -82 -22 q-55 -20 -92 -63.5t-59 -124.5q-8 -26 -8 -77q0 -37 4 -86zM285 1577q-2 13 -2 23q0 37 26 55q15 9 35 9q15 0 33 -5l16 -4q41 55 86 67q12 3 23 3q44 0 76 -46q29 -41 34 -100q1 -13 1 -26q0 -46 -17 -78q-27 -43 -86 -43q-43 2 -94 24q-45 20 -82 51q-41 37 -49 70z M354 1593q2 -12 27 -32q27 -25 63 -41q39 -16 66 -19q20 0 25 10q9 15 9 41q0 9 -1 19q-4 43 -23 69q-11 15 -23 15h-1q-18 -4 -41 -35q12 -8 18 -16q8 -10 7 -24.5t-11 -24t-24.5 -8.5t-24.5 12q-2 2 -12 10q-14 -4 -27 2q-10 8 -14 18l-9 4h-4z" />
<glyph unicode="K" horiz-adv-x="743" d="M92 809q0 14 11.5 23.5t25.5 9.5h2h25q-2 33 -2 65v117v119q0 53 -5.5 113.5t-17.5 113.5q-2 12 6 24.5t23 16.5q27 4 37 -20q10 6 24 6q14 -2 23.5 -13.5t7.5 -25.5q-20 -217 -27 -488q37 13 66 15q61 35 119 104q74 90 141 240q37 117 47 239q2 14 12 24q9 9 21 9h4 q14 -2 24.5 -12t8.5 -25q-6 -78 -25 -155q10 -14 4 -31l-33 -76q-35 -104 -86 -188q-59 -96 -139 -156l8 -2q158 -72 219 -293q16 -55 41 -180q20 -113 37 -164q2 -6 2 -11q0 -8 -4 -16q-6 -12 -20 -16q-2 -2 -4 -2q-6 -18 -27 -22q-14 -2 -26.5 6t-14.5 22q-25 160 -86 322 q-76 201 -162 264q-30 23 -79 23q-9 0 -19 -1q-14 -4 -29 -6q10 -348 51 -637q2 -14 -7 -25t-23 -14q-8 0 -17 3v-3q2 -14 -7 -25q-10 -11 -24 -13h-5q-11 0 -20 7q-11 9 -13 23q-6 66 -8 138q-1 36 -1 79t1 93q2 102 2 135q0 129 2 229h-29q-16 0 -25.5 11.5t-9.5 25.5z " />
<glyph unicode="L" horiz-adv-x="589" d="M190 1458q0 14 9.5 24.5t23.5 12.5q12 0 23.5 -8.5t13.5 -22.5q4 -8 4 -18v-25q6 -94 29.5 -339.5t32.5 -381.5q2 -43 8 -188q2 -113 10 -184q14 -133 35 -191q18 -49 41 -67q2 -2 6 -4q39 6 66 20q12 6 26 2t20 -16q4 -8 5 -17q0 -5 -2 -10q-4 -14 -17 -20l-8 -5 q-4 -23 -24 -26q-20 -6 -39 -6t-35 6q-13 -3 -27 -3q-7 0 -14 1q-113 2 -135 90q-20 94 -28 248q-5 101 -4 190q0 47 1 91q2 63 2 125t-2 124q-2 51 -8 174q-5 123 -9 212q-2 48 -2 94q0 40 1 79zM297 174q6 -41 14 -76q5 -18 21 -28q-10 20 -19 43q-8 27 -16 61z" />
<glyph unicode="M" horiz-adv-x="1359" d="M88 1104q-2 6 -2 11q0 7 4 15q6 12 21 17q4 2 8 2q-4 12 -6 22q-4 14 2 26.5t20.5 17t26.5 -2t16 -20.5q18 -55 29 -133q4 12 6 24q43 176 141 205q26 8 50 7q83 0 151 -85l8 -8q35 -14 66 -43q55 94 138 132q58 27 122 27q27 0 55 -5q88 -14 166 -72.5t123 -144.5 q81 -153 81 -360q0 -50 -5 -103q-8 -80 -33 -227q-29 -166 -33 -224q-2 -14 -13 -23t-25.5 -7t-24 13t-6.5 25l2 11q-8 -2 -19 2q-12 4 -19.5 16t-2.5 27q55 199 55 360q0 254 -139 410q-78 86 -154 121q-42 19 -78 19q-46 0 -84 -30q-23 -18 -43 -49q45 -76 76 -198 q55 -215 55 -414q0 -55 -22 -135q-6 -25 -15 -43v-11q2 -41 0 -61q-2 -12 -4 -20.5t-6 -14.5q-10 -14 -26 -16q-23 -2 -43 16q-12 10 -25 31q-4 8 -10 18q-45 27 -76 109q-27 68 -41 174q-22 132 -22 232q0 42 4 77q6 53 24 119q4 49 17 90q-27 66 -58 111h-2q-5 1 -10 1 q-42 0 -82 -59q-45 -63 -82 -186q-29 -102 -46 -212t-17 -163v-37q25 -193 28 -239q0 -12 2 -22.5t2 -16.5q2 -10 0 -19q2 -14 6 -36q0 -4 1.5 -8.5t2.5 -10.5t1 -10q2 -10 4 -14v-7q-2 -8 -4 -14q-8 -12 -21 -16q-6 -3 -12 -3q-8 0 -17 5q-8 4 -12 12q-2 2 -3 4t-1 4 q-51 139 -70 463q-18 141 -28 191q-6 33 -19.5 112.5t-25 136t-27.5 107.5zM252 817q12 53 27 98q39 135 90 209q43 61 96 80q-31 22 -64 22q-13 0 -26 -3q-61 -18 -94 -156q-23 -100 -29 -250zM625 889q-2 -26 -2 -55q0 -158 47 -402q6 -37 41 -119l4 -12q-2 68 -15 186 q-18 201 -75 402zM877 1247q39 -4 75.5 -23.5t53 -31.5t61.5 -51q98 -82 141 -221q10 -33 31 -119l4 -15q-6 154 -72 277q-39 72 -103 121t-136 61q-19 3 -37 3q-9 0 -18 -1z" />
<glyph unicode="N" horiz-adv-x="972" d="M92 1324q0 10 8 20q10 12 23 14h8v6q3 14 13 24q10 9 21 8h3q14 -1 23.5 -11.5t9.5 -24.5q0 -12 -2 -25q18 2 30 -10q305 -291 527 -782l55 -111q2 37 2 90q0 127 -12 381q-14 297 -15 385q0 14 10.5 24.5t24.5 10.5q16 0 27 -14q10 14 26 14q14 0 25.5 -9t11.5 -24 q14 -274 15 -784q0 -106 -2 -137q-2 -49 -9 -78q-4 -20 -12 -33q-14 -27 -41 -27q-31 0 -43 31q-12 -4 -22 -2q-18 4 -35 23q-10 12 -23 30q-18 29 -45 82l-41 88q-23 43 -28 54l-58 106l-88 154q-39 70 -86 141q-80 125 -143 195q-23 25 -43 43q2 -33 8 -74 q29 -217 31 -266q4 -63 4 -138l4 -20q12 -94 24.5 -268t20.5 -242q2 -14 -7 -25.5t-23.5 -13.5t-26.5 8v-31q0 -14 -10.5 -24t-24.5 -10t-24.5 10t-10.5 24q0 43 8 365q2 131 2 221q-10 61 -33.5 171t-29.5 143q-10 61 -17 159q0 12 -2 41t-2 43q-6 9 -6 18q0 5 2 11 q0 2 2 4z" />
<glyph unicode="O" horiz-adv-x="1198" d="M121 883q10 94 57 183t125 142q45 49 105 64q5 1 10 1q10 0 18 -5q66 18 129 18q108 0 210 -53q161 -84 259 -248q88 -150 99 -315q16 -61 18 -117q2 -34 1 -65q0 -321 -167 -414q-62 -34 -140 -34q-83 0 -186 38q-57 4 -114 22q-100 33 -180 107t-129 172 q-120 183 -120 412q0 45 5 92zM240 727q0 -45 2 -86q104 260 393 567q-33 6 -66 6h-16q-4 -8 -10 -16q-129 -135 -258 -450q-12 -31 -45 -21zM248 840q99 231 203 358q-35 -8 -70 -24q-16 -8 -31 -19q-16 -18 -28 -41q-39 -68 -62 -186q-8 -43 -12 -88zM252 549 q12 -70 45 -135l8 -13q66 -96 215 -180q82 -47 154 -76q27 0 51 2q-18 16 -10 39q68 193 233 406q8 12 22.5 14t26 -7t13 -23.5t-8.5 -24.5q-156 -205 -221 -389q63 25 138 98q148 148 148 358q0 19 -1 39q-27 111 -78 185q-74 109 -205 198q-10 -14 -50 -66t-52 -69 l-47 -65q-35 -47 -51 -70l-43 -65q-29 -43 -45 -74l-39 -68q-23 -39 -40.5 -75.5t-31.5 -73.5q-6 -14 -19.5 -19.5t-26.5 -0.5t-18.5 18.5t-1.5 25.5q16 41 34 78t42 78l39 72q16 29 47 75l45 66q12 20 49 72l50 63l51 70l49 67l-55 31q-8 6 -13 16q-276 -299 -364 -555 q-10 -27 -39 -22zM543 304q-2 5 -2 11q0 8 4 17q63 125 123.5 218t140.5 167q10 10 25.5 10t24.5 -10t9 -25.5t-10 -23.5q-123 -115 -252 -369q-6 -12 -19.5 -16t-26.5 2t-17 19zM698 1174q2 -2 7 -3l61 -36q12 10 29 8q-41 27 -84 43l-6 -6zM819 1124q6 -12 2 -26 q63 -43 111 -88q-49 68 -113 114zM836 111h9q60 0 105 24q98 53 123 223q-41 -82 -106 -147q-70 -70 -131 -100z" />
<glyph unicode="P" horiz-adv-x="1034" d="M92 1256v5q0 11 6 21q27 35 62 64l-6 59q-2 14 7 25.5t23 13.5q10 0 19 -2q6 8 16 10q6 2 11 2q8 0 16 -4q12 -6 16 -20l2 -9q55 35 128 35q30 0 63 -6q40 2 73 2q66 0 107 -8q121 -29 231 -166q82 -102 108 -217q13 -58 13.5 -112.5t-13.5 -106.5q-26 -104 -99.5 -194.5 t-184.5 -151.5q-139 -76 -303 -86v-60q0 -180 -10 -377q0 -14 -11.5 -23t-25.5 -9q-16 0 -27 16q-8 -20 -28 -23h-5q-10 0 -20 8q-12 10 -14 23q-12 106 -17 316q-4 242 -8 311q-23 362 -51 668l-14 -19q-8 -12 -22.5 -14t-27 6.5t-14.5 22.5zM242 1223q29 -287 49 -627 q4 -72 8 -313q2 -168 10 -256q8 168 8 322v61q-20 10 -20 32.5t20 30.5q-8 428 -75 750zM287 1341q90 -358 100 -856q106 23 244 111q98 66 157 142q58 78 72 174q3 21 3 41q0 77 -40 157q-25 51 -91 112.5t-148 104.5q-70 39 -133 51h-11q-82 -6 -153 -37zM676 1354 q51 -35 96 -74q-49 47 -96 74z" />
<glyph unicode="Q" horiz-adv-x="1421" d="M238 987q8 115 45 221q51 150 131 240q89 100 193 100q33 0 67 -10q6 -2 10 -6q31 4 61 4q79 0 148 -26q96 -37 161.5 -109t106.5 -164q41 -94 56 -199q8 -54 8 -107q0 -105 -31 -209q-45 -155 -154 -253q-35 -35 -75 -61l65 -136l29 -59q18 14 41 29q61 40 137 40 q29 0 61 -6q45 -8 64 -38q14 -22 14 -49q0 -9 -2 -19q-12 -59 -76 -123q-61 -63 -127 -88q-34 -13 -63 -13q-46 0 -78 34q-22 22 -22 52v7v29q0 4 -2 8q-10 2 -19 8q-10 8 -12 22.5t8 26.5l2 2q-18 47 -43 98q-41 84 -72 127q-27 -10 -53 -16q-46 -9 -89 -9q-107 0 -196 58 l-12 6q-111 55 -176 150q-70 96 -92 209q-17 80 -17 163q0 33 3 66zM358 858q18 -135 73.5 -243.5t139.5 -161.5q83 -36 161 -36q38 0 75 9q45 8 84 27q6 6 12 10q6 2 10 2q43 23 78 55q86 86 125 218q29 97 29 196q0 36 -4 72q-23 203 -148 299q-79 62 -186 62 q-81 0 -178 -36q-14 -4 -27.5 2t-17.5 19.5t2 27t18 17.5q107 38 200 38q61 0 116 -16q-82 47 -177 47q-39 0 -81 -8q-113 -20 -190 -112.5t-104 -219.5q-16 -79 -16 -164q0 -51 6 -104zM1090 147l22 -49q11 -27 -14 -43q14 -2 27 -2q48 0 83 29q20 18 23 39q2 25 -25 55 q-12 14 -6 33q-35 -6 -63 -25q-25 -16 -47 -37zM1268 211q20 -27 28 -53q6 14 8 26q2 6 2 10q0 3 -1 5q-4 6 -19 8q-8 2 -18 4z" />
<glyph unicode="R" horiz-adv-x="659" d="M156 1222q0 11 7 20q9 11 23 13q10 0 21 -4l12 4q14 2 25.5 -7t13.5 -23q6 -41 7 -100q0 -15 -1 -31q45 76 115 125t172 96q2 2 6 2q12 11 23 11q13 0 24 -15q8 -10 8 -22v-5q-2 -14 -12 -22q-203 -168 -268 -330q-43 -104 -47 -244l6 -41q20 -195 24 -301q4 -96 4 -127 q0 -53 -2 -84q0 -18 -2 -31q-2 -8 -4 -14q-4 -14 -16 -22q-4 0 -6 -2v-27q0 -8 -2 -14q0 -8 -6 -17q-11 -16 -26 -16q-7 0 -15 4q-12 4 -19 16q-14 25 -22 84q-8 49 -11 123q-4 66 -4 147.5t4 178.5q4 127 13 221q-7 88 -25 255q-20 188 -20 199z" />
<glyph unicode="S" horiz-adv-x="731" d="M192 226q3 14 14 22t25.5 5t22.5 -13l10 -15q20 25 47 6q21 -16 44 -16q19 0 40 10q47 23 60 82q3 13 3 34q0 41 -12 112q-55 324 -112 514q-12 37 -47 128t-56.5 164.5t-23.5 143.5v16q0 86 39 153q43 73 116 105q45 23 96 24q26 -1 53 -7q81 -18 142 -86q8 -10 9 -23 l6 -4q12 -7 15 -21q1 -4 1 -8q0 -10 -5 -18q-7 -12 -21.5 -15t-26.5 5q-101 63 -162 63q-26 0 -45 -12q-49 -31 -53 -156q0 -47 4 -101t14 -118l21 -100q6 -39 20 -102.5t16 -69.5q84 -401 103 -533q5 -35 4 -69q1 -55 -11 -108q-20 -85 -69 -128q-36 -33 -80 -33 q-25 0 -53 11q-72 29 -143 131q-6 9 -6 19q0 4 1 8zM276 1407q2 -84 41 -193q-16 109 -16 189v18q4 97 33 154q-58 -63 -58 -159v-9zM338 147q14 -10 27 -14q14 -5 26 -6q21 0 37 16q17 14 29 39q-46 -36 -99 -36q-10 0 -20 1z" />
<glyph unicode="T" horiz-adv-x="579" d="M53 1182v2v8q0 14 10.5 24.5t24.5 10.5q55 0 113 2q-4 57 -17 100q-8 31 19 43l-2 21q-2 14 7 25q10 12 24 14h4q11 0 21 -8q11 -10 13 -23q10 -84 17 -166q84 6 205 20q14 2 25 -7t13 -23q2 -12 -4 -23q4 -6 6 -14v-6q0 -12 -6 -20q-8 -12 -22 -15q-94 -18 -209 -19 q7 -120 7 -233q0 -128 -9 -246q-2 -16 -13.5 -146t-13.5 -196q8 -100 27 -252q2 -14 -7.5 -25.5t-23.5 -13.5h-5q-11 0 -19 6q-10 8 -15 23q-10 8 -12 21q-15 89 -15 191q0 23 1 46q-16 174 -16 324q0 65 3 125q0 8 10.5 156.5t10.5 224.5q-55 2 -121 10q-14 2 -24 13 q-8 9 -7 21v5z" />
<glyph unicode="U" horiz-adv-x="1032" d="M115 1143q0 14 10 24.5t22 10.5v18q0 14 9.5 25.5t24 11.5t25.5 -9.5t11 -23.5q0 -23 3 -122t6 -148t10.5 -133t17.5 -152q55 -330 223 -452q16 -12 35 -23q4 0 8 -2q25 -6 49 -6q19 0 37 4q53 25 90 98q39 84 62 225q16 104 22 254v27q-2 61 -20 320l-12 63 q-2 14 6 25.5t22 15.5q10 2 19 -2q2 0 2 2q18 14 39 4q8 -4 14 -12q6 -10 10 -29q2 -12 2 -29q1 -14 1 -32t-1 -39v-4q4 -39 11.5 -115t11.5 -111q8 -70 14 -135q47 -266 86 -454v-6q0 -12 -6 -20q-8 -12 -23 -15q-12 -2 -24 4q2 -49 2 -99q0 -14 -10.5 -24t-24.5 -10 t-24.5 10t-10.5 24q0 172 -14 373q-4 -55 -12 -102q-20 -135 -70 -193q-57 -66 -141 -82q-12 -6 -27 -8q-17 -5 -35 -5q-36 0 -78 19q-135 37 -208 150q-49 72 -82 166t-48.5 170t-23.5 196.5t-9 177t-1 179.5z" />
<glyph unicode="V" horiz-adv-x="858" d="M60 1056q0 12 8 21q10 10 24 11.5t25 -7.5q23 -18 43 -55q4 0 6 2q14 2 25.5 -6t15.5 -23q12 -66 35 -165q16 -47 32 -105q14 -45 64 -219q23 -86 35 -125l33 -74q14 -29 28 -45q10 59 27 127q45 197 121 404l4 12q47 160 86 258q23 59 41 94q23 45 43 60q9 5 19 5l9 -1 q16 -4 25 -19l2 -14v-6q0 -2 -2 -6q0 -2 -2 -11q-4 -14 -10 -32q-14 -51 -23 -74q-16 -43 -55 -123q-39 -78 -53 -119l-17 -45q-80 -266 -110 -418l-29 -133l-16 -80q-4 -18 -7 -26q-2 -6 -3 -10.5t-1 -6.5q-2 -2 -4 -6q-9 -12 -25 -14h-4q-14 0 -24 10q-2 2 -5 6t-7 11 l-13 24q-12 27 -30 72q-37 84 -49 117q-6 16 -13 38q-27 66 -55 156q-41 133 -80 299q-18 55 -35 98q-39 90 -67 115q-12 11 -12 28z" />
<glyph unicode="W" horiz-adv-x="960" d="M8 1223v5q0 10 6 20q8 12 22.5 15t26 -5.5t15.5 -22.5l12 -68q8 8 19 11q14 2 26 -6.5t15 -22.5q14 -90 51 -387q27 -240 61 -381q7 -23 25 -74v90q0 231 43 477q25 131 32 166q16 63 35 97q8 12 17 20v2q0 6 2 10l4 9q8 12 22 16q29 4 47 -18q6 -6 11 -13q8 -10 12 -26 q10 -29 20 -72q16 -74 23 -129q18 -170 78 -444q18 -94 37 -166q6 76 12 137q8 72 30.5 203t26.5 168q10 72 25.5 211t33 253.5t42.5 210.5q4 18 6 25q4 8 8 12q8 8 18 8q5 1 9 1q11 0 22 -7q8 -8 10 -20q2 -4 2 -8q0 -10 -4 -47l-6 -62q-4 -33 -4 -37q-2 -43 -8 -131 q-6 -84 -8 -131q-20 -416 -51 -750q-10 -106 -17 -141q-10 -53 -22 -84q-25 -51 -64 -53q-23 0 -41 16q-12 12 -24 31q-2 6 -7 14h-2q-8 10 -16 27q-12 23 -25 64q-10 29 -32 110q-39 133 -76 375q-37 240 -49 297l-13 -96q-6 -39 -16 -193q-10 -147 -18 -235 q-14 -154 -33 -244q-6 -39 -14 -68q4 -18 0 -30q-4 -18 -19 -27v-2q-10 -23 -22 -35q-24 -27 -50 -31q-4 -1 -8 -1q-22 0 -43 18q-27 23 -45 82q-25 76 -31 149q-29 336 -139 918zM219 287q10 -63 25 -111q12 -35 22 -47l4 4q5 6 9 14q-4 8 -13 23q-10 20 -28 70zM729 164 l2 2zM731 166q10 23 19 67q4 29 14 138q17 172 29 350q-33 -197 -41 -266q-8 -82 -17 -201q-4 -66 -4 -68v-20z" />
<glyph unicode="X" horiz-adv-x="1032" d="M213 1152v6q0 12 6 22q8 12 22.5 14t26.5 -6q37 -27 73 -69t56.5 -72.5t54 -86t46.5 -73.5l61 -94q55 250 129 372l2 6q4 8 12 15l7 12q8 10 22 13q4 1 7 1q10 0 18 -6q12 -8 15 -22.5t-5 -26.5l-14 -22l-27 -74q14 12 33 6q14 -4 20 -16.5t2 -26.5l-37 -121l-45 -143 q-20 -63 -41 -121l86 -137q115 -137 185 -242q12 -18 0 -37l51 -69q6 -10 6 -21v-5q-2 -14 -14.5 -23t-26.5 -7t-22 15l-37 51q-20 0 -31 18q-76 145 -205 324l-31 35l-20 -52q-27 -55 -81 -157.5t-77 -155.5q-14 -39 -24 -74q-7 -24 -30 -24h-5q-6 0 -12 2 q-14 4 -20.5 16.5t-2.5 26.5q10 35 27 76l61 170q61 168 82 241q4 20 10 43l-63 82q-37 49 -115 185l-20 32q-33 43 -68 86q-10 12 -8 27l-21 25q-16 18 -2 40h-2q-12 8 -14 22zM621 745l34 113q-4 0 -8 2q-8 -31 -26 -115z" />
<glyph unicode="Y" horiz-adv-x="1153" d="M147 1245q-2 14 7.5 25.5t23.5 13.5q12 2 23 -4q10 10 26 10q14 0 23.5 -10.5t9.5 -26.5q-1 -48 -1 -91q0 -191 28 -306q29 -111 80 -160q41 -41 104 -41q20 0 43 4q86 16 135 185q27 90 47 274q0 2 1 9.5t2 20.5t1 23q2 23 5 33q0 8 2 13v6q0 2 2 4q0 4 2 6q2 4 6 8 q2 2 6 4v43q10 0 20 -6q29 -10 39 -57v-4q2 -6 2 -15q8 -29 15.5 -65.5t12.5 -78.5t9 -61q2 -16 15 -79l20 -105q37 37 64 68q10 10 24 12t25 -8q20 -18 8 -43q38 6 76 6h20q14 0 23.5 -11.5t9.5 -25.5t-11.5 -23.5t-25.5 -9.5q-11 1 -21 1q-87 0 -169 -44l-7 -6 q25 -143 35 -262q8 -84 8 -152q0 -91 -14 -155q-20 -102 -76 -146q-10 -18 -22 -32q-57 -72 -124 -72q-33 0 -69 18q-115 59 -125 224q-1 14 -1 28q0 133 67 283q25 55 57 106q-37 -18 -80 -22q-10 -1 -20 -1q-201 0 -289 275q-16 53 -31 117q-12 68 -18 110t-13 111.5 t-10 81.5zM555 160q8 -125 88 -166q16 -8 33 -8q12 0 24 4q-76 18 -120 114q-14 37 -25 82v-26zM610 307v-10q0 -88 33 -164q36 -77 90 -77q7 0 15 1q14 2 26 9q29 55 35 106t6 114q0 147 -33 357q-27 -29 -47 -53q-123 -143 -125 -283zM723 713q20 18 41 35l-10 67 q-2 -12 -6 -24q-10 -43 -25 -78z" />
<glyph unicode="Z" d="M137 1291q-1 11 7 21q10 12 24 13q10 0 76 10q8 8 20 11q135 18 213 22h29q63 6 104 8q39 0 62 -2q14 -2 24 -4q18 -6 27 -18q10 -16 8 -39q-2 -14 -6 -37q-2 -10 -6 -25q-2 -2 -2 -6q-4 -39 -23 -98q-29 -100 -98 -260q-61 -143 -168 -359l-31 -96q0 -2 -20 -59 q-16 -49 -25 -82q-10 -45 -12 -74l4 -27q12 -10 29 -14q10 0 20 -2l33 6l80 13l12 4q18 6 117 45q70 29 104 34q14 2 26.5 -6t14.5 -22q2 -20 -12 -33h41h6h12h11q8 2 14 0h6q8 -2 14 -6q10 -9 12 -23q1 -3 1 -6q0 -11 -6 -20q-6 -6 -15 -10q-2 -2 -4 -2.5t-6 -2.5 q-119 -23 -317 -36q-59 -4 -101 -5q-27 -2 -51 -2q-47 -6 -78 -8t-49 -2q-12 2 -20 4q-16 4 -27 17q-8 12 -6 28q0 8 2 17q4 16 12 41v2q0 20 6 47q10 41 35 96q18 41 55 113l13 32l57 129l43 123l47 131q14 47 35.5 119t36 134.5t24.5 123.5q2 14 14.5 22.5t27 6.5 t22.5 -14.5t6 -26.5l8 25q0 8 -2 14q-14 12 -57 18q-33 4 -80 4q-27 -2 -57 -6q-72 -8 -173.5 -22.5t-103.5 -14.5q-14 -3 -26 7q-14 12 -13 29z" />
<glyph unicode="[" horiz-adv-x="1042" d="M228.5 585q0.5 81 7 233.5t6.5 225.5q0 27 -4.5 83.5t-6.5 66.5q-4 84 7 133q-6 63 10 107q29 66 135 71q76 4 137 -18q12 -4 18.5 -17.5t2.5 -27.5q-5 -9 -11 -15q-4 -23 -26 -28q-10 -2 -58 -10q-41 -6 -65 -13q-63 -18 -72 -41q0 -4 -2 -10q0 -6 2 -14q0 -10 5 -35 t8.5 -45.5t3.5 -36.5q4 -106 4 -226t-2 -265.5t-2 -225.5v-45v-76v-90v-2q10 -41 32 -65q35 -39 109 -47q33 -2 90 -2q131 10 354 6h52q2 0 4 -1t4 -1q8 -2 14 -7q16 -14 10 -36q-2 -14 -16 -21q-6 -4 -10 -4q-2 0 -4 -2h-23q-72 -2 -328 -2q-8 0 -55 -2q-18 0 -31 -2 q-10 0 -26 -4l-41 -11q-25 -6 -43 -10q-41 -10 -68 -12q-43 -2 -65 14q-12 8 -19 25q-2 6 -2 16q-4 16 -4 45q-4 41 -4 113q-8 33 -16 98q-12 152 -11.5 233zM322 113h2q4 0 8 -2h14q4 2 10 2q-14 8 -26 18q0 -12 2 -20q-4 8 -10 2z" />
<glyph unicode="\" horiz-adv-x="794" d="M242 1171q-13 30 14 46q-2 14 -6 28q-2 14 6 26.5t22.5 14.5t26.5 -6t14 -23q14 -80 91 -260q229 -545 335 -903q2 -6 3 -8v-6q0 -6 -3 -12q-10 -23 -34 -21q-12 0 -23 10l-4 4q0 2 -2 5q0 2 -2 4v2l-4 10l-8 24l-47 107q-27 57 -101 246l-82 221l-106 274 q-43 113 -90 217z" />
<glyph unicode="]" horiz-adv-x="481" d="M186 39q-6 18 2 35q6 10 19 16q10 6 29 12q43 12 51 17q29 14 41 39.5t16 68.5q4 49 10 179q-2 35 -2 59q6 397 2 692v31v35q0 49 -4 84q-4 45 -16 71q-4 16 -12 25q-10 4 -23 6q-6 0 -14 -2q-2 0 -45 -8q-14 -2 -25.5 6t-15.5 22q-5 25 18 37q10 18 31 19q35 0 55 -4 q23 2 37 -4q12 -6 25 -17q16 -12 28 -26q16 -23 27 -84q6 -51 10 -134q6 -143 4 -370q-2 -217 -10 -438q0 -18 3 -52.5t3 -42.5q6 -102 -2 -164q-12 -80 -111 -122q-35 -14 -65 -17q-18 -2 -33 2q-25 6 -33 29z" />
<glyph unicode="^" d="M399 889q6 57 84 323q23 76 43 138q6 31 11 61v6v15q4 39 32 49q4 0 6.5 2t2.5 4q4 6 8 10q8 10 20 14q31 6 58 -26q14 -16 30 -49q25 -53 58 -148q33 -98 79 -266q6 -25 21 -64q14 -41 18 -61q2 -4 6.5 -17.5t4.5 -15.5q4 -12 4 -16q2 -4 2 -6q0 -8 -2 -15 q-6 -14 -19 -20q-16 -6 -32 2l-11 10q-2 2 -3 4t-1 4q-31 66 -100.5 247t-120.5 274l-4 -15q-37 -188 -111 -405q-2 -8 -8 -15q-6 -23 -6 -32q-2 -14 -13.5 -23.5t-25.5 -7.5t-23.5 13.5t-7.5 25.5z" />
<glyph unicode="_" horiz-adv-x="1271" d="M367 75.5q2 14.5 13.5 23.5t25.5 7q61 -6 136.5 -10t126 -4t145.5 1t132 1h205h4q2 0 8 1t11 3h22q25 -6 29 -30q4 -18 -11 -33q-6 -6 -14 -8q-2 -2 -6 -2t-8 -2q-8 0 -23 -3q-14 0 -69.5 -2t-214.5 -6q-322 -8 -361 -14q-14 -2 -26.5 7t-14.5 22v4q-41 2 -80 6 q-14 2 -23 13t-7 25.5z" />
<glyph unicode="`" horiz-adv-x="557" d="M264 1545.5q4 13.5 17.5 19.5t27 2t19.5 -17q18 -35 37 -75q4 -4 8 -13q16 -25 49 -92q29 -61 51 -117q12 -29 19 -45q2 -10 4 -16q2 -4 2 -8q2 -12 -4 -25q-2 0 -2 -2q14 -31 16 -35v-4q2 -4 2 -8q2 -12 -6 -25q-12 -16 -33 -12q-8 0 -16 6l-9 8q0 2 -1 3.5t-1 3.5 q-2 2 -8 12l-22 47l-11 21v4l-30 61l-4 10v2l-2 2v2l-2 5l-9 24q-39 86 -51 133q-4 12 -6 23v12q-16 35 -33 66q-6 14 -2 27.5z" />
<glyph unicode="a" horiz-adv-x="737" d="M102 369v10q0 203 76 438l21 60l6 18q63 201 149 311q70 88 148 113q50 26 100 26q33 0 66 -12q12 -4 18 -17q4 -8 4 -16q0 -4 -2 -10q-4 -14 -17.5 -20t-27.5 -2h-2q0 -2 2 -4q0 -10 2 -33q0 -6 2 -35t4 -39q7 -79 7 -157q0 -52 -3 -105q-20 -299 -39 -399 q25 -178 72 -289q3 -9 3 -16q0 -17 -17 -27l4 -12q4 -14 -2 -27.5t-19.5 -18t-27 2t-17.5 18.5q-25 74 -43 152q-41 -92 -84 -152q-51 -70 -104 -92q-27 -12 -53 -12q-24 0 -47 10q-33 2 -60 20q-117 76 -119 316zM195 281q25 -121 90 -170q4 -4 8 -7q25 4 63 33 q131 104 185 334q-8 82 -11 174q-8 111 -8 213q0 218 35 399q-14 0 -29 -4q-47 -27 -98 -88q-94 -115 -166 -311q-49 -162 -67 -330q-10 -88 -9 -151q-1 -56 7 -92z" />
<glyph unicode="b" horiz-adv-x="827" d="M76 1398.5q0 14.5 12 24.5l10 9v16q0 14 10.5 24.5t24.5 10.5t25 -10q14 8 30 16q96 65 192 65q16 0 32 -2q53 -8 94 -36q16 -6 31 -17q70 -49 81 -149q5 -47 5 -94v-15q-2 -166 -119 -393q-12 -27 -47 -78q10 2 18 4q26 4 49 3q83 0 129 -44q20 -20 37 -47 q70 -57 86 -145q6 -34 6 -67q0 -76 -28 -154q-40 -112 -125 -191q-53 -51 -117 -79q-61 -27 -133 -26h-5q-75 1 -147 37q-16 2 -24 13q-6 -2 -10 -2q-14 -2 -25.5 7t-13.5 23q-10 102 -15 279q-6 233 -8 274q-4 66 -12 220.5t-13.5 268t-7.5 220.5q-8 2 -14 10 q-8 10 -8 24.5zM174 1386q12 -82 20.5 -182t12.5 -164l12 -188q8 -127 10 -170q2 -35 8.5 -243t22.5 -316q23 -12 47 -21q2 14 11.5 23.5t23.5 9.5t47 -2t47 -2q49 0 72 12q51 29 92 99.5t59 158.5q11 53 11 99q0 81 -33 141q-29 20 -66 33q-51 18 -109 18q-21 0 -42 -2 q-14 -2 -21 -4q-8 -2 -14 0h-2q-18 -4 -35 -8q-2 0 -6 -4l-2 -2q-4 -2 -7 -3t-5 -3q-14 -8 -27 -9q-29 -2 -41 23t2 47q8 10 21 18q10 4 16 9l4 2q70 66 113 129q127 182 137 358q0 27 -4 53q-14 113 -78 160q-31 12 -73 12h-13q-78 -2 -162 -41q-26 -18 -49 -41z" />
<glyph unicode="c" horiz-adv-x="727" d="M172 594v15q0 134 35 282q8 37 20 72q23 76 52 135q47 100 110 162q62 61 120 61q20 0 40 -8q10 6 21 6h6q14 -2 22 -14q14 -20 0 -41q0 -10 -6 -19q-14 -18 -37 -14q-63 -45 -100 -75t-80 -78t-68 -99q-8 -19 -14 -39q-10 -31 -19 -66q-12 -63 -12 -126q0 -127 49 -259 q47 -131 134 -213.5t204 -93.5q13 -2 23 -13q8 -9 8 -21q0 -18 -14 -28q-9 -7 -20 -7h-5q-6 0 -14 2q-35 -15 -76 -15q-70 0 -158 43q-215 109 -221 451zM266 418q41 -147 150 -207q-93 78 -150 207z" />
<glyph unicode="d" d="M180 645q-4 25 -4 48q0 53 19 100q57 135 243 143q13 1 26 1q25 0 48 -3h18q106 0 211 -43q0 117 -2 186l-10 199q-6 156 -6 240q0 14 10 24t25 10q6 0 12 -2q0 12 8 23.5t21 13.5h5q12 -1 22 -7q12 -8 14 -22q8 -57 12 -141q0 -14 1 -41.5t1 -50.5t2 -43 q14 -252 14 -669v-107q6 -6 11 -15q5 -10 5 -18q0 -15 -16 -25q-2 -211 -2 -299q0 -23 -20 -30q4 -14 -2 -26.5t-20 -16.5q-6 -2 -12 -2q-8 0 -16 4q-12 6 -16 20q-16 53 -16 142v32v31q-75 -21 -144 -21q-98 0 -184 42q-148 72 -217 206q-6 10 -10 21q-23 35 -29 76 q-2 10 -2 20zM250 651q6 -33 20 -67q45 -68 174 -105q74 -20 158 -25q25 -1 46 -1q51 0 81 8q10 2 23 6q-11 120 -11 321q-104 66 -229 76q-145 -6 -227 -110q-35 -45 -35 -103zM410 418q98 -67 214 -67q66 0 138 22q-2 12 -4 22l-13 -4q-37 -8 -90 -8q-27 0 -57 2 q-88 4 -174 29z" />
<glyph unicode="e" horiz-adv-x="749" d="M-56 906q12 9 25 7q119 -12 154 -14l20 2q4 80 17 152q6 49 14 94q25 121 72 196q35 55 80 84q39 31 82 41q22 4 43 4q63 0 104 -42q43 -45 53 -132q2 -21 2 -43q0 -49 -10 -103q-14 -76 -39 -122q-57 -100 -140 -140t-198 -52q2 -37 8 -64q16 -94 93 -309q4 -10 10 -33 q6 -25 10 -35q10 -35 21 -43q8 -8 43 -6q10 0 34.5 2t32.5 2q51 2 80 9.5t55 31.5q6 4 11 8l16 29q6 12 20.5 16.5t26.5 -2t16 -20.5q2 -5 2 -11q0 -8 -4 -16q-49 -92 -86 -137q-70 -80 -153 -86h-11q-34 0 -78 10q-50 12 -81 37q-84 63 -123 262q-27 140 -27 303v43h-10 q-41 -2 -68 -6q-20 -1 -32 15l-68 6q-13 2 -23 13q-8 9 -8 21q0 17 14 28zM221 913q18 12 53 58q70 90 109 135q14 16 39 39l39 37q41 39 53 71q10 23 10 43q0 30 -21 56q-28 34 -71 35q-13 0 -26 -3q-20 -4 -39 -14q-51 -43 -88 -139q-31 -80 -50 -189q-8 -63 -8 -129z M229 520l4 -24q35 -172 97 -222q20 -14 58 -23q31 -7 56 -7h11q45 4 86 43q-25 -4 -66 -4q-6 0 -26 -2q-25 -2 -41 -2h-9q-52 0 -80 22q-27 20 -43 76q-4 10 -10 37q-6 20 -8 26zM330 928q111 33 170 135q18 33 30 90l-22 -23l-39 -36l-33 -33q-39 -45 -106 -133z" />
<glyph unicode="f" horiz-adv-x="704" d="M68 492q2 14 13 23t25 7q25 -2 56 -4q8 23 33 23h81q-22 253 -22 431q0 55 2 103q-1 41 -1 82t1 82q2 106 27 223q16 72 34 121q27 63 62 88q24 16 48 16q12 0 24 -4q20 -6 47 -30q23 -20 39 -49q23 -27 41 -70q33 -82 53 -227q26 -179 26 -383v-15q0 -14 -10 -24.5 t-24 -10.5q-10 0 -21 7q-10 -12 -27 -13q-14 0 -24 10.5t-10 24.5q0 27 2 107t2 132t-4 142q-10 195 -60 281q-16 16 -30 18v-2q-8 -8 -19 -29q-20 -37 -41 -104q-39 -123 -49 -191q-12 -88 -16 -182q2 -104 10 -297l12 -235q80 2 125 2q14 0 24.5 -10.5t10.5 -24.5 q0 -12 -8 -21q12 -14 10 -30q-2 -14 -14.5 -22.5t-26.5 -6.5q-50 8 -113 12q23 -248 29 -381q0 -23 -20 -32q-4 -25 -29 -27h-5q-11 0 -21 7q-11 9 -13 24q-6 47 -9 104.5t-4 98t-2 108.5t-1 100q-133 4 -183 9q-14 2 -23 13q-7 9 -7 20v6z" />
<glyph unicode="g" horiz-adv-x="942" d="M104 1122q20 82 101.5 149.5t181.5 96.5q52 19 111 19q18 0 36 -1q79 -8 128 -51q-6 29 -11 56q-2 16 8 28v2q-2 12 6.5 24.5t21.5 15.5q4 1 7 1q9 0 18 -6q13 -8 17 -22q6 -27 12 -72q111 -326 144 -678q12 -108 12 -200q0 -107 -16 -193q-33 -199 -144 -283 q-6 -4 -14 -10l-16 -12q-76 -59 -155 -59q-60 0 -122 34q-8 4 -14 8q-76 37 -129 109q-51 74 -64 166q-2 14 7.5 25.5t23.5 13.5t25.5 -7.5t13.5 -23.5v-4q18 -4 24 -21q72 -156 134 -196q14 -8 28 -13q6 2 13 2q115 0 170 25q53 41 81 121q17 50 17 211v18q-2 135 -21 379 l-2 27q-78 -49 -186 -60q-33 -5 -66 -5q-93 0 -184 38q-109 45 -167 135q-39 61 -39 136q0 37 9 77zM174 1018q12 -80 85 -134.5t177 -68.5q35 -5 69 -5q17 0 34 1q72 10 118 45q41 33 66 102l-16 138l-23 114q-27 -4 -37 23q-8 20 -20 37q-57 36 -134 36h-4 q-79 -1 -155 -36q-31 -12 -55 -31l-13 -8q-96 -73 -96 -172q0 -20 4 -41z" />
<glyph unicode="h" horiz-adv-x="690" d="M86 1538v5q0 15 10 26q6 27 33 28q14 0 25.5 -9t11.5 -23q0 -16 2 -33q2 -6 4 -14q6 -20 16 -70q10 -63 15.5 -139t8.5 -168t5 -135q2 -34 2 -75q0 -68 -6 -157q0 -16 -3 -64t-5 -73l12 25q78 142 196 142q9 0 17 -1q94 -8 148 -98q39 -70 55 -189q8 -60 10 -126 q1 -33 1 -70t-1 -78q-2 -82 -2 -84q0 -27 -27 -33q-8 -20 -30 -21q-14 0 -24.5 10.5t-10.5 24.5q0 203 -29 332q-23 98 -59 147q-33 45 -77 45q-6 0 -13 -1q-53 -6 -99 -62q-20 -25 -36 -90q-25 -98 -33 -268q0 -10 6 -90q1 -18 1 -34q0 -47 -9 -73q0 -4 -2 -8 q-6 -12 -21 -17q-8 -3 -15 -3q-18 0 -28 20q-2 6 -3 11t-1 15v15v12v14q-8 2 -12 9q-4 4 -6 10q-2 4 -2 8q-2 6 -5 14q-2 14 -4 41q-6 49 -10 88q-4 44 -5 92q0 24 -0.5 54t0.5 66q1 72 1 92q0 106 10.5 304.5t10.5 358.5t-23 297zM397 731q70 -4 121 -69l12 -21 q-6 16 -14 29q-35 59 -90 63q-5 1 -10 1q-10 0 -19 -3z" />
<glyph unicode="i" horiz-adv-x="374" d="M78 1503q-4 13 -4 24q0 19 10 33q16 24 55 27q17 2 35 0q18 23 35 33q24 18 46 18q7 0 13 -2q27 -6 43 -37q10 -18 15 -47q4 -24 4 -50t-4 -54q-2 -27 -11 -45q-10 -29 -30 -39q-23 -8 -54 0q-23 8 -47 22q-47 31 -80 72q-18 25 -26 45zM131 518q2 29 2 109q2 47 10 114 l13 119q4 47 4 107.5t-10 111.5q-2 14 6 26.5t22.5 14.5t26.5 -6q-2 59 -10 109q-2 14 6 26.5t22.5 14.5t26.5 -6.5t14 -22.5q8 -53 9 -119v-33q0 -47 -2 -85q-3 -50 -9 -121.5t-8 -110.5q-4 -80 -6 -177t-2 -165t1 -181.5t1 -168.5q0 -14 -10.5 -24.5t-24.5 -10.5 q-25 0 -33 22q-25 6 -26.5 33t-7 104.5t-7.5 106.5t-6 107q-3 52 -3 81q0 15 1 25zM147 1518q4 -6 11 -17q27 -31 63 -55q16 -10 31 -14q4 10 6 26q3 18 3 36q0 24 -5 46q-2 16 -6 25q-4 -5 -10 -9q4 -8 2 -18q-4 -12 -16.5 -20.5t-26.5 -6.5l-2 2q-14 -4 -29 5q-12 2 -21 0 z" />
<glyph unicode="j" horiz-adv-x="772" d="M88 637q-1 18 -1 36q0 106 41 195q48 105 163 162q76 39 203 43l-13 49q-37 137 -47 226q-2 14 7.5 25t23.5 13h4q0 14 9 23.5t22 11.5q14 2 25.5 -7t13.5 -23q8 -90 39 -267l6 -39q66 10 98 19q14 2 26.5 -5t16.5 -22q1 -4 1 -9q0 -14 -11 -24v-6q0 -14 -10.5 -24 t-24.5 -10q-18 0 -82 2q14 -86 20 -152l3 -27q29 -166 43 -399q3 -51 3 -93q0 -69 -8 -112q-12 -61 -41 -100q-12 -25 -28 -45q-34 -42 -84 -42t-115 42q-88 55 -143 133q-63 90 -109 203q-43 113 -51 223zM158 641q12 -172 116 -342q-14 37 -26 80q-33 119 -43 244 q-4 45 -4 81q0 65 12 103q18 74 51 123q-107 -87 -107 -252q0 -18 1 -37zM275 628q10 -118 40 -231q35 -125 84 -194q48 -68 101 -68h6q33 2 53 25q23 53 25 141q1 14 1 31q0 34 -3 78q-6 98 -7 100q-4 98 -24 309q-6 45 -16 88q-9 41 -23 94q-47 -8 -82 -22 q-55 -20 -92 -63.5t-59 -124.5q-8 -26 -8 -77q0 -37 4 -86zM285 1577q-2 13 -2 23q0 37 26 55q15 9 35 9q15 0 33 -5l16 -4q41 55 86 67q12 3 23 3q44 0 76 -46q29 -41 34 -100q1 -13 1 -26q0 -46 -17 -78q-27 -43 -86 -43q-43 2 -94 24q-45 20 -82 51q-41 37 -49 70z M354 1593q2 -12 27 -32q27 -25 63 -41q39 -16 66 -19q20 0 25 10q9 15 9 41q0 9 -1 19q-4 43 -23 69q-11 15 -23 15h-1q-18 -4 -41 -35q12 -8 18 -16q8 -10 7 -24.5t-11 -24t-24.5 -8.5t-24.5 12q-2 2 -12 10q-14 -4 -27 2q-10 8 -14 18l-9 4h-4z" />
<glyph unicode="k" horiz-adv-x="743" d="M92 809q0 14 11.5 23.5t25.5 9.5h2h25q-2 33 -2 65v117v119q0 53 -5.5 113.5t-17.5 113.5q-2 12 6 24.5t23 16.5q27 4 37 -20q10 6 24 6q14 -2 23.5 -13.5t7.5 -25.5q-20 -217 -27 -488q37 13 66 15q61 35 119 104q74 90 141 240q37 117 47 239q2 14 12 24q9 9 21 9h4 q14 -2 24.5 -12t8.5 -25q-6 -78 -25 -155q10 -14 4 -31l-33 -76q-35 -104 -86 -188q-59 -96 -139 -156l8 -2q158 -72 219 -293q16 -55 41 -180q20 -113 37 -164q2 -6 2 -11q0 -8 -4 -16q-6 -12 -20 -16q-2 -2 -4 -2q-6 -18 -27 -22q-14 -2 -26.5 6t-14.5 22q-25 160 -86 322 q-76 201 -162 264q-30 23 -79 23q-9 0 -19 -1q-14 -4 -29 -6q10 -348 51 -637q2 -14 -7 -25t-23 -14q-8 0 -17 3v-3q2 -14 -7 -25q-10 -11 -24 -13h-5q-11 0 -20 7q-11 9 -13 23q-6 66 -8 138q-1 36 -1 79t1 93q2 102 2 135q0 129 2 229h-29q-16 0 -25.5 11.5t-9.5 25.5z " />
<glyph unicode="l" horiz-adv-x="589" d="M190 1458q0 14 9.5 24.5t23.5 12.5q12 0 23.5 -8.5t13.5 -22.5q4 -8 4 -18v-25q6 -94 29.5 -339.5t32.5 -381.5q2 -43 8 -188q2 -113 10 -184q14 -133 35 -191q18 -49 41 -67q2 -2 6 -4q39 6 66 20q12 6 26 2t20 -16q4 -8 5 -17q0 -5 -2 -10q-4 -14 -17 -20l-8 -5 q-4 -23 -24 -26q-20 -6 -39 -6t-35 6q-13 -3 -27 -3q-7 0 -14 1q-113 2 -135 90q-20 94 -28 248q-5 101 -4 190q0 47 1 91q2 63 2 125t-2 124q-2 51 -8 174q-5 123 -9 212q-2 48 -2 94q0 40 1 79zM297 174q6 -41 14 -76q5 -18 21 -28q-10 20 -19 43q-8 27 -16 61z" />
<glyph unicode="m" horiz-adv-x="1359" d="M88 1104q-2 6 -2 11q0 7 4 15q6 12 21 17q4 2 8 2q-4 12 -6 22q-4 14 2 26.5t20.5 17t26.5 -2t16 -20.5q18 -55 29 -133q4 12 6 24q43 176 141 205q26 8 50 7q83 0 151 -85l8 -8q35 -14 66 -43q55 94 138 132q58 27 122 27q27 0 55 -5q88 -14 166 -72.5t123 -144.5 q81 -153 81 -360q0 -50 -5 -103q-8 -80 -33 -227q-29 -166 -33 -224q-2 -14 -13 -23t-25.5 -7t-24 13t-6.5 25l2 11q-8 -2 -19 2q-12 4 -19.5 16t-2.5 27q55 199 55 360q0 254 -139 410q-78 86 -154 121q-42 19 -78 19q-46 0 -84 -30q-23 -18 -43 -49q45 -76 76 -198 q55 -215 55 -414q0 -55 -22 -135q-6 -25 -15 -43v-11q2 -41 0 -61q-2 -12 -4 -20.5t-6 -14.5q-10 -14 -26 -16q-23 -2 -43 16q-12 10 -25 31q-4 8 -10 18q-45 27 -76 109q-27 68 -41 174q-22 132 -22 232q0 42 4 77q6 53 24 119q4 49 17 90q-27 66 -58 111h-2q-5 1 -10 1 q-42 0 -82 -59q-45 -63 -82 -186q-29 -102 -46 -212t-17 -163v-37q25 -193 28 -239q0 -12 2 -22.5t2 -16.5q2 -10 0 -19q2 -14 6 -36q0 -4 1.5 -8.5t2.5 -10.5t1 -10q2 -10 4 -14v-7q-2 -8 -4 -14q-8 -12 -21 -16q-6 -3 -12 -3q-8 0 -17 5q-8 4 -12 12q-2 2 -3 4t-1 4 q-51 139 -70 463q-18 141 -28 191q-6 33 -19.5 112.5t-25 136t-27.5 107.5zM252 817q12 53 27 98q39 135 90 209q43 61 96 80q-31 22 -64 22q-13 0 -26 -3q-61 -18 -94 -156q-23 -100 -29 -250zM625 889q-2 -26 -2 -55q0 -158 47 -402q6 -37 41 -119l4 -12q-2 68 -15 186 q-18 201 -75 402zM877 1247q39 -4 75.5 -23.5t53 -31.5t61.5 -51q98 -82 141 -221q10 -33 31 -119l4 -15q-6 154 -72 277q-39 72 -103 121t-136 61q-19 3 -37 3q-9 0 -18 -1z" />
<glyph unicode="n" horiz-adv-x="972" d="M92 1324q0 10 8 20q10 12 23 14h8v6q3 14 13 24q10 9 21 8h3q14 -1 23.5 -11.5t9.5 -24.5q0 -12 -2 -25q18 2 30 -10q305 -291 527 -782l55 -111q2 37 2 90q0 127 -12 381q-14 297 -15 385q0 14 10.5 24.5t24.5 10.5q16 0 27 -14q10 14 26 14q14 0 25.5 -9t11.5 -24 q14 -274 15 -784q0 -106 -2 -137q-2 -49 -9 -78q-4 -20 -12 -33q-14 -27 -41 -27q-31 0 -43 31q-12 -4 -22 -2q-18 4 -35 23q-10 12 -23 30q-18 29 -45 82l-41 88q-23 43 -28 54l-58 106l-88 154q-39 70 -86 141q-80 125 -143 195q-23 25 -43 43q2 -33 8 -74 q29 -217 31 -266q4 -63 4 -138l4 -20q12 -94 24.5 -268t20.5 -242q2 -14 -7 -25.5t-23.5 -13.5t-26.5 8v-31q0 -14 -10.5 -24t-24.5 -10t-24.5 10t-10.5 24q0 43 8 365q2 131 2 221q-10 61 -33.5 171t-29.5 143q-10 61 -17 159q0 12 -2 41t-2 43q-6 9 -6 18q0 5 2 11 q0 2 2 4z" />
<glyph unicode="o" horiz-adv-x="1198" d="M121 883q10 94 57 183t125 142q45 49 105 64q5 1 10 1q10 0 18 -5q66 18 129 18q108 0 210 -53q161 -84 259 -248q88 -150 99 -315q16 -61 18 -117q2 -34 1 -65q0 -321 -167 -414q-62 -34 -140 -34q-83 0 -186 38q-57 4 -114 22q-100 33 -180 107t-129 172 q-120 183 -120 412q0 45 5 92zM240 727q0 -45 2 -86q104 260 393 567q-33 6 -66 6h-16q-4 -8 -10 -16q-129 -135 -258 -450q-12 -31 -45 -21zM248 840q99 231 203 358q-35 -8 -70 -24q-16 -8 -31 -19q-16 -18 -28 -41q-39 -68 -62 -186q-8 -43 -12 -88zM252 549 q12 -70 45 -135l8 -13q66 -96 215 -180q82 -47 154 -76q27 0 51 2q-18 16 -10 39q68 193 233 406q8 12 22.5 14t26 -7t13 -23.5t-8.5 -24.5q-156 -205 -221 -389q63 25 138 98q148 148 148 358q0 19 -1 39q-27 111 -78 185q-74 109 -205 198q-10 -14 -50 -66t-52 -69 l-47 -65q-35 -47 -51 -70l-43 -65q-29 -43 -45 -74l-39 -68q-23 -39 -40.5 -75.5t-31.5 -73.5q-6 -14 -19.5 -19.5t-26.5 -0.5t-18.5 18.5t-1.5 25.5q16 41 34 78t42 78l39 72q16 29 47 75l45 66q12 20 49 72l50 63l51 70l49 67l-55 31q-8 6 -13 16q-276 -299 -364 -555 q-10 -27 -39 -22zM543 304q-2 5 -2 11q0 8 4 17q63 125 123.5 218t140.5 167q10 10 25.5 10t24.5 -10t9 -25.5t-10 -23.5q-123 -115 -252 -369q-6 -12 -19.5 -16t-26.5 2t-17 19zM698 1174q2 -2 7 -3l61 -36q12 10 29 8q-41 27 -84 43l-6 -6zM819 1124q6 -12 2 -26 q63 -43 111 -88q-49 68 -113 114zM836 111h9q60 0 105 24q98 53 123 223q-41 -82 -106 -147q-70 -70 -131 -100z" />
<glyph unicode="p" horiz-adv-x="1034" d="M92 1256v5q0 11 6 21q27 35 62 64l-6 59q-2 14 7 25.5t23 13.5q10 0 19 -2q6 8 16 10q6 2 11 2q8 0 16 -4q12 -6 16 -20l2 -9q55 35 128 35q30 0 63 -6q40 2 73 2q66 0 107 -8q121 -29 231 -166q82 -102 108 -217q14 -57 14 -112t-14 -107q-26 -103 -99.5 -194 t-184.5 -152q-139 -76 -303 -86v-60q0 -180 -10 -377q0 -14 -11.5 -23t-25.5 -9q-16 0 -27 16q-8 -20 -28 -23h-5q-11 0 -20 8q-12 9 -14 23q-12 106 -17 316q-4 242 -8 311q-23 362 -51 668l-14 -19q-8 -12 -22.5 -14t-27 6t-14.5 23zM242 1223q29 -287 49 -627 q4 -72 8 -313q2 -168 10 -256q8 167 8 322v61q-20 10 -20 32.5t20 30.5q-8 428 -75 750zM287 1341q90 -358 100 -856q106 23 244 111q98 66 156.5 142.5t72.5 173.5q3 20 3 41q0 77 -40 157q-25 51 -91 112.5t-148 104.5q-70 39 -133 51h-11q-82 -6 -153 -37zM676 1354 q51 -35 96 -74q-49 47 -96 74z" />
<glyph unicode="q" horiz-adv-x="1421" d="M238 987q8 115 45 221q51 150 131 240q89 100 193 100q33 0 67 -10q6 -2 10 -6q31 4 61 4q79 0 148 -26q96 -37 161.5 -109t106.5 -164q41 -94 56 -199q8 -54 8 -107q0 -105 -31 -209q-45 -155 -154 -253q-35 -35 -75 -61l65 -136l29 -59q18 14 41 29q61 40 137 40 q29 0 61 -6q45 -8 64 -38q14 -22 14 -49q0 -9 -2 -19q-12 -59 -76 -123q-61 -63 -127 -88q-34 -13 -63 -13q-46 0 -78 34q-22 22 -22 52v7v29q0 4 -2 8q-10 2 -19 8q-10 8 -12 22.5t8 26.5l2 2q-18 47 -43 98q-41 84 -72 127q-27 -10 -53 -16q-46 -9 -89 -9q-107 0 -196 58 l-12 6q-111 55 -176 150q-70 96 -92 209q-17 80 -17 163q0 33 3 66zM358 858q18 -135 73.5 -243.5t139.5 -161.5q83 -36 161 -36q38 0 75 9q45 8 84 27q6 6 12 10q6 2 10 2q43 23 78 55q86 86 125 218q29 97 29 196q0 36 -4 72q-23 203 -148 299q-79 62 -186 62 q-81 0 -178 -36q-14 -4 -27.5 2t-17.5 19.5t2 27t18 17.5q107 38 200 38q61 0 116 -16q-82 47 -177 47q-39 0 -81 -8q-113 -20 -190 -112.5t-104 -219.5q-16 -79 -16 -164q0 -51 6 -104zM1090 147l22 -49q11 -27 -14 -43q14 -2 27 -2q48 0 83 29q20 18 23 39q2 25 -25 55 q-12 14 -6 33q-35 -6 -63 -25q-25 -16 -47 -37zM1268 211q20 -27 28 -53q6 14 8 26q2 6 2 10q0 3 -1 5q-4 6 -19 8q-8 2 -18 4z" />
<glyph unicode="r" horiz-adv-x="659" d="M156 1222q0 11 7 20q9 11 23 13q10 0 21 -4l12 4q14 2 25.5 -7t13.5 -23q6 -41 7 -100q0 -15 -1 -31q45 76 115 125t172 96q2 2 6 2q12 11 23 11q13 0 24 -15q8 -10 8 -22v-5q-2 -14 -12 -22q-203 -168 -268 -330q-43 -104 -47 -244l6 -41q20 -195 24 -301q4 -96 4 -127 q0 -53 -2 -84q0 -18 -2 -31q-2 -8 -4 -14q-4 -14 -16 -22q-4 0 -6 -2v-27q0 -8 -2 -14q0 -8 -6 -17q-11 -16 -26 -16q-7 0 -15 4q-12 4 -19 16q-14 25 -22 84q-8 49 -11 123q-4 66 -4 147.5t4 178.5q4 127 13 221q-7 88 -25 255q-20 188 -20 199z" />
<glyph unicode="s" horiz-adv-x="731" d="M192 226q3 14 14 22t25.5 5t22.5 -13l10 -15q20 25 47 6q21 -16 44 -16q19 0 40 10q47 23 60 82q3 13 3 34q0 41 -12 112q-55 324 -112 514q-12 37 -47 128t-56.5 164.5t-23.5 143.5v16q0 86 39 153q43 73 116 105q45 23 96 24q26 -1 53 -7q81 -18 142 -86q8 -10 9 -23 l6 -4q12 -7 15 -21q1 -4 1 -8q0 -10 -5 -18q-7 -12 -21.5 -15t-26.5 5q-101 63 -162 63q-26 0 -45 -12q-49 -31 -53 -156q0 -47 4 -101t14 -118l21 -100q6 -39 20 -102.5t16 -69.5q84 -401 103 -533q5 -35 4 -69q1 -55 -11 -108q-20 -85 -69 -128q-36 -33 -80 -33 q-25 0 -53 11q-72 29 -143 131q-6 9 -6 19q0 4 1 8zM276 1407q2 -84 41 -193q-16 109 -16 189v18q4 97 33 154q-58 -63 -58 -159v-9zM338 147q14 -10 27 -14q14 -5 26 -6q21 0 37 16q17 14 29 39q-46 -36 -99 -36q-10 0 -20 1z" />
<glyph unicode="t" horiz-adv-x="579" d="M53 1182v2v8q0 14 10.5 24.5t24.5 10.5q55 0 113 2q-4 57 -17 100q-8 31 19 43l-2 21q-2 14 7 25q10 12 24 14h4q11 0 21 -8q11 -10 13 -23q10 -84 17 -166q84 6 205 20q14 2 25 -7t13 -23q2 -12 -4 -23q4 -6 6 -14v-6q0 -12 -6 -20q-8 -12 -22 -15q-94 -18 -209 -19 q7 -120 7 -233q0 -128 -9 -246q-2 -16 -13.5 -146t-13.5 -196q8 -100 27 -252q2 -14 -7.5 -25.5t-23.5 -13.5h-5q-11 0 -19 6q-10 8 -15 23q-10 8 -12 21q-15 89 -15 191q0 23 1 46q-16 174 -16 324q0 65 3 125q0 8 10.5 156.5t10.5 224.5q-55 2 -121 10q-14 2 -24 13 q-8 9 -7 21v5z" />
<glyph unicode="u" horiz-adv-x="1032" d="M115 1143q0 14 10 24.5t22 10.5v18q0 14 9.5 25.5t24 11.5t25.5 -9.5t11 -23.5q0 -23 3 -122t6 -148t10.5 -133t17.5 -152q55 -330 223 -452q16 -12 35 -23q4 0 8 -2q25 -6 49 -6q19 0 37 4q53 25 90 98q39 84 62 225q16 104 22 254v27q-2 61 -20 320l-12 63 q-2 14 6 25.5t22 15.5q10 2 19 -2q2 0 2 2q18 14 39 4q8 -4 14 -12q6 -10 10 -29q2 -12 2 -29q1 -14 1 -32t-1 -39v-4q4 -39 11.5 -115t11.5 -111q8 -70 14 -135q47 -266 86 -454v-6q0 -12 -6 -20q-8 -12 -23 -15q-12 -2 -24 4q2 -49 2 -99q0 -14 -10.5 -24t-24.5 -10 t-24.5 10t-10.5 24q0 172 -14 373q-4 -55 -12 -102q-20 -135 -70 -193q-57 -66 -141 -82q-12 -6 -27 -8q-17 -5 -35 -5q-36 0 -78 19q-135 37 -208 150q-49 72 -82 166t-48.5 170t-23.5 196.5t-9 177t-1 179.5z" />
<glyph unicode="v" horiz-adv-x="858" d="M60 1056q0 12 8 21q10 10 24 11.5t25 -7.5q23 -18 43 -55q4 0 6 2q14 2 25.5 -6t15.5 -23q12 -66 35 -165q16 -47 32 -105q14 -45 64 -219q23 -86 35 -125l33 -74q14 -29 28 -45q10 59 27 127q45 197 121 404l4 12q47 160 86 258q23 59 41 94q23 45 43 60q9 5 19 5l9 -1 q16 -4 25 -19l2 -14v-6q0 -2 -2 -6q0 -2 -2 -11q-4 -14 -10 -32q-14 -51 -23 -74q-16 -43 -55 -123q-39 -78 -53 -119l-17 -45q-80 -266 -110 -418l-29 -133l-16 -80q-4 -18 -7 -26q-2 -6 -3 -10.5t-1 -6.5q-2 -2 -4 -6q-9 -12 -25 -14h-4q-14 0 -24 10q-2 2 -5 6t-7 11 l-13 24q-12 27 -30 72q-37 84 -49 117q-6 16 -13 38q-27 66 -55 156q-41 133 -80 299q-18 55 -35 98q-39 90 -67 115q-12 11 -12 28z" />
<glyph unicode="w" horiz-adv-x="960" d="M8 1223v5q0 10 6 20q8 12 22.5 15t26 -5.5t15.5 -22.5l12 -68q8 8 19 11q14 2 26 -6.5t15 -22.5q14 -90 51 -387q27 -240 61 -381q7 -23 25 -74v90q0 231 43 477q25 131 32 166q16 63 35 97q8 12 17 20v2q0 6 2 10l4 9q8 12 22 16q29 4 47 -18q6 -6 11 -13q8 -10 12 -26 q10 -29 20 -72q16 -74 23 -129q18 -170 78 -444q18 -94 37 -166q6 76 12 137q8 72 30.5 203t26.5 168q10 72 25.5 211t33 253.5t42.5 210.5q4 18 6 25q4 8 8 12q8 8 18 8q5 1 9 1q11 0 22 -7q8 -8 10 -20q2 -4 2 -8q0 -10 -4 -47l-6 -62q-4 -33 -4 -37q-2 -43 -8 -131 q-6 -84 -8 -131q-20 -416 -51 -750q-10 -106 -17 -141q-10 -53 -22 -84q-25 -51 -64 -53q-23 0 -41 16q-12 12 -24 31q-2 6 -7 14h-2q-8 10 -16 27q-12 23 -25 64q-10 29 -32 110q-39 133 -76 375q-37 240 -49 297l-13 -96q-6 -39 -16 -193q-10 -147 -18 -235 q-14 -154 -33 -244q-6 -39 -14 -68q4 -18 0 -30q-4 -18 -19 -27v-2q-10 -23 -22 -35q-24 -27 -50 -31q-4 -1 -8 -1q-22 0 -43 18q-27 23 -45 82q-25 76 -31 149q-29 336 -139 918zM219 287q10 -63 25 -111q12 -35 22 -47l4 4q5 6 9 14q-4 8 -13 23q-10 20 -28 70zM729 164 l2 2zM731 166q10 23 19 67q4 29 14 138q17 172 29 350q-33 -197 -41 -266q-8 -82 -17 -201q-4 -66 -4 -68v-20z" />
<glyph unicode="x" horiz-adv-x="1032" d="M213 1152v6q0 12 6 22q8 12 22.5 14t26.5 -6q37 -27 73 -69t56.5 -72.5t54 -86t46.5 -73.5l61 -94q55 250 129 372l2 6q4 8 12 15l7 12q8 10 22 13q4 1 7 1q10 0 18 -6q12 -8 15 -22.5t-5 -26.5l-14 -22l-27 -74q14 12 33 6q14 -4 20 -16.5t2 -26.5l-37 -121l-45 -143 q-20 -63 -41 -121l86 -137q115 -137 185 -242q12 -18 0 -37l51 -69q6 -10 6 -21v-5q-2 -14 -14.5 -23t-26.5 -7t-22 15l-37 51q-20 0 -31 18q-76 145 -205 324l-31 35l-20 -52q-27 -55 -81 -157.5t-77 -155.5q-14 -39 -24 -74q-7 -24 -30 -24h-5q-6 0 -12 2 q-14 4 -20.5 16.5t-2.5 26.5q10 35 27 76l61 170q61 168 82 241q4 20 10 43l-63 82q-37 49 -115 185l-20 32q-33 43 -68 86q-10 12 -8 27l-21 25q-16 18 -2 40h-2q-12 8 -14 22zM621 745l34 113q-4 0 -8 2q-8 -31 -26 -115z" />
<glyph unicode="y" horiz-adv-x="1153" d="M147 1245q-2 14 7.5 25.5t23.5 13.5q12 2 23 -4q10 10 26 10q14 0 23.5 -10.5t9.5 -26.5q-1 -48 -1 -91q0 -191 28 -306q29 -111 80 -160q41 -41 104 -41q20 0 43 4q86 16 135 185q27 90 47 274q0 2 1 9.5t2 20.5t1 23q2 23 5 33q0 8 2 13v6q0 2 2 4q0 4 2 6q2 4 6 8 q2 2 6 4v43q10 0 20 -6q29 -10 39 -57v-4q2 -6 2 -15q8 -29 15.5 -65.5t12.5 -78.5t9 -61q2 -16 15 -79l20 -105q37 37 64 68q10 10 24 12t25 -8q20 -18 8 -43q38 6 76 6h20q14 0 23.5 -11.5t9.5 -25.5t-11.5 -23.5t-25.5 -9.5q-11 1 -21 1q-87 0 -169 -44l-7 -6 q25 -143 35 -262q8 -84 8 -152q0 -91 -14 -155q-20 -102 -76 -146q-10 -18 -22 -32q-57 -72 -124 -72q-33 0 -69 18q-115 59 -125 224q-1 14 -1 28q0 133 67 283q25 55 57 106q-37 -18 -80 -22q-10 -1 -20 -1q-201 0 -289 275q-16 53 -31 117q-12 68 -18 110t-13 111.5 t-10 81.5zM555 160q8 -125 88 -166q16 -8 33 -8q12 0 24 4q-76 18 -120 114q-14 37 -25 82v-26zM610 307v-10q0 -88 33 -164q36 -77 90 -77q7 0 15 1q14 2 26 9q29 55 35 106t6 114q0 147 -33 357q-27 -29 -47 -53q-123 -143 -125 -283zM723 713q20 18 41 35l-10 67 q-2 -12 -6 -24q-10 -43 -25 -78z" />
<glyph unicode="z" d="M137 1291q-1 11 7 21q10 12 24 13q10 0 76 10q8 8 20 11q135 18 213 22h29q63 6 104 8q39 0 62 -2q14 -2 24 -4q18 -6 27 -18q10 -16 8 -39q-2 -14 -6 -37q-2 -10 -6 -25q-2 -2 -2 -6q-4 -39 -23 -98q-29 -100 -98 -260q-61 -143 -168 -359l-31 -96q0 -2 -20 -59 q-16 -49 -25 -82q-10 -45 -12 -74l4 -27q12 -10 29 -14q10 0 20 -2l33 6l80 13l12 4q18 6 117 45q70 29 104 34q14 2 26.5 -6t14.5 -22q2 -20 -12 -33h41h6h12h11q8 2 14 0h6q8 -2 14 -6q10 -9 12 -23q1 -3 1 -6q0 -11 -6 -20q-6 -6 -15 -10q-2 -2 -4 -2.5t-6 -2.5 q-119 -23 -317 -36q-59 -4 -101 -5q-27 -2 -51 -2q-47 -6 -78 -8t-49 -2q-12 2 -20 4q-16 4 -27 17q-8 12 -6 28q0 8 2 17q4 16 12 41v2q0 20 6 47q10 41 35 96q18 41 55 113l13 32l57 129l43 123l47 131q14 47 35.5 119t36 134.5t24.5 123.5q2 14 14.5 22.5t27 6.5 t22.5 -14.5t6 -26.5l8 25q0 8 -2 14q-14 12 -57 18q-33 4 -80 4q-27 -2 -57 -6q-72 -8 -173.5 -22.5t-103.5 -14.5q-14 -3 -26 7q-14 12 -13 29z" />
<glyph unicode="{" horiz-adv-x="759" d="M160 588q-14 70 6 112q12 27 39 45q14 23 43 60q45 59 57 82l-4 8l-27 59q-16 37 -18 60q-10 100 2 190q0 158 133 291q4 4 12 8q37 31 84 51q14 4 27.5 -1t19 -18t0 -26.5t-17.5 -19.5q-160 -66 -188 -287q0 -51 14 -110q4 -12 20 -45q20 -39 27 -62q10 -51 -8 -100 l8 -29q8 -43 -8 -72q-12 -20 -30.5 -36.5t-33 -24.5t-36 -17.5t-25.5 -9.5q-25 -49 -4 -98q8 -23 51 -41q2 0 23 2q23 0 34 -2q49 -2 70 -35q4 -8 6 -20v-15v-32q0 -10 -1 -20.5t-1 -16.5v-8v-2q4 -16 8 -37l9 -43q4 -20 6 -33q16 -88 59 -137q4 -6 33 -25l61 -41l60 -39 q12 -8 20 -14q4 -4 8 -6q8 -6 13 -15q4 -12 2 -22q-4 -14 -15 -23q-10 -6 -22 -6q-8 0 -25 2q-16 4 -67 19q-115 31 -160 80q-25 29 -40 60.5t-20.5 74.5t-6.5 64.5t3.5 73.5t4.5 58q-6 23 -15 39q-10 29 -61 49q-45 2 -74 19q-43 25 -55 82z" />
<glyph unicode="|" horiz-adv-x="430" d="M244 1329q-9 25 14 39q-2 39 -2 76q0 14 10 24.5t24.5 10.5t25 -10.5t10.5 -24.5q0 -109 10 -244q2 -18 2 -37l10 -121q25 -301 29 -405v-299v-84l6 -57v-4v-9q0 -4 -2 -8q-12 -25 -37 -20q-8 2 -14 6t-8 6l-3 4q-2 2 -4 6l-2 6v2q0 4 -2 11q-2 20 -2 28q-2 20 -2 41 q-31 360 -35 613v116q0 106 -4 162l-2 39q-8 76 -22 133z" />
<glyph unicode="}" horiz-adv-x="710" d="M140.5 1501.5q3.5 14.5 15.5 20.5q135 88 245 18q141 -88 127 -307q0 -23 -4 -45q10 -98 -14 -311q-2 -16 -23 -80q-8 -23 -10 -35q25 10 39 12q41 10 66 -10q27 -23 28 -66q0 -12 -2 -24q31 -20 43 -56q25 -59 -2 -161q-25 -100 -137 -240q-2 -16 -6 -29q-6 -20 -31 -53 q-25 -29 -53 -55q-33 -31 -62 -47q-43 -27 -71 -17q-20 6 -27 25q-2 12 1 21.5t9 13.5l4 4q6 6 19 10l14 4q33 29 74 76l61 74q0 12 -2 28q-4 63 -2 80q6 74 58 211q2 4 4 9.5t6 14.5t6 15q8 18 14 35l-18 6q-27 8 -41 14q-16 6 -29 15q-37 -8 -61 8q-12 8 -14 25 q-2 6 -3 14q0 10 3 26q2 25 8 68q14 78 24 117q51 207 58 258q-23 193 -187 274q-18 8 -18 29q-27 -8 -57 -27q-12 -8 -26.5 -5t-22 15.5t-4 27zM510 328q55 80 74 145q20 80 4 119q0 2 -2 4l-8 -21q-2 -6 -5 -14l-6 -12q-2 -6 -4 -10q-47 -129 -53 -191v-20zM535 709l4 -2 v2h-4z" />
<glyph unicode="~" horiz-adv-x="1200" d="M186 649q33 76 74 119q0 2 -2 4q-4 12 1 25.5t20 19.5q41 16 81.5 19.5t81.5 -7t73 -22.5t73 -33q14 -8 55 -29l57 -28q18 -8 49 -20.5t55.5 -18.5t51.5 -6q102 -4 164 55q2 2 24 43q29 57 74 49q31 -6 37 -39q2 -14 -4 -35q-8 -25 -33 -63q-45 -76 -82 -108.5t-84 -41.5 q-100 -14 -229 54q-39 23 -102 63q-80 51 -95 60q-98 59 -153 49q-70 -12 -121 -137q-6 -12 -19.5 -17.5t-26.5 -0.5t-18.5 18.5t-1.5 27.5zM881 602q31 -4 59 0q27 5 47 21q-47 -18 -106 -21z" />
<glyph unicode="&#xad;" horiz-adv-x="622" d="M178 698.5q0 14.5 10.5 24.5t24.5 10h8h8q6 4 17 6q6 2 16 2q14 0 37 -4q14 0 39 -4q49 0 88 -2q66 -2 96 -6l23 -4q6 0 12 -4q12 -6 16 -19q8 -23 -10 -39q-14 -12 -41 -14q-16 -2 -41 0q-23 2 -57 6v-4q-4 -14 -16 -22l-13 -4h-6h-2h-2h-4q-14 0 -41 2h-33 q-16 0 -26 12q-16 4 -27 8q-25 9 -35 21h-6q-14 0 -24.5 10t-10.5 24.5z" />
<glyph unicode="&#x2000;" horiz-adv-x="887" />
<glyph unicode="&#x2001;" horiz-adv-x="1774" />
<glyph unicode="&#x2002;" horiz-adv-x="887" />
<glyph unicode="&#x2003;" horiz-adv-x="1774" />
<glyph unicode="&#x2004;" horiz-adv-x="591" />
<glyph unicode="&#x2005;" horiz-adv-x="443" />
<glyph unicode="&#x2006;" horiz-adv-x="295" />
<glyph unicode="&#x2007;" horiz-adv-x="295" />
<glyph unicode="&#x2008;" horiz-adv-x="221" />
<glyph unicode="&#x2009;" horiz-adv-x="354" />
<glyph unicode="&#x200a;" horiz-adv-x="98" />
<glyph unicode="&#x2010;" horiz-adv-x="622" d="M178 698.5q0 14.5 10.5 24.5t24.5 10h8h8q6 4 17 6q6 2 16 2q14 0 37 -4q14 0 39 -4q49 0 88 -2q66 -2 96 -6l23 -4q6 0 12 -4q12 -6 16 -19q8 -23 -10 -39q-14 -12 -41 -14q-16 -2 -41 0q-23 2 -57 6v-4q-4 -14 -16 -22l-13 -4h-6h-2h-2h-4q-14 0 -41 2h-33 q-16 0 -26 12q-16 4 -27 8q-25 9 -35 21h-6q-14 0 -24.5 10t-10.5 24.5z" />
<glyph unicode="&#x2011;" horiz-adv-x="622" d="M178 698.5q0 14.5 10.5 24.5t24.5 10h8h8q6 4 17 6q6 2 16 2q14 0 37 -4q14 0 39 -4q49 0 88 -2q66 -2 96 -6l23 -4q6 0 12 -4q12 -6 16 -19q8 -23 -10 -39q-14 -12 -41 -14q-16 -2 -41 0q-23 2 -57 6v-4q-4 -14 -16 -22l-13 -4h-6h-2h-2h-4q-14 0 -41 2h-33 q-16 0 -26 12q-16 4 -27 8q-25 9 -35 21h-6q-14 0 -24.5 10t-10.5 24.5z" />
<glyph unicode="&#x2012;" horiz-adv-x="622" d="M178 698.5q0 14.5 10.5 24.5t24.5 10h8h8q6 4 17 6q6 2 16 2q14 0 37 -4q14 0 39 -4q49 0 88 -2q66 -2 96 -6l23 -4q6 0 12 -4q12 -6 16 -19q8 -23 -10 -39q-14 -12 -41 -14q-16 -2 -41 0q-23 2 -57 6v-4q-4 -14 -16 -22l-13 -4h-6h-2h-2h-4q-14 0 -41 2h-33 q-16 0 -26 12q-16 4 -27 8q-25 9 -35 21h-6q-14 0 -24.5 10t-10.5 24.5z" />
<glyph unicode="&#x2013;" horiz-adv-x="1248" d="M178 698.5q0 14.5 27 24.5t63 10h21h20q16 4 44 6q16 2 41 2q36 0 96 -4q36 0 100 -4q126 0 227 -2q170 -2 247 -6l60 -4q15 0 30 -4q31 -6 42 -19q20 -23 -26 -39q-36 -12 -106 -14q-41 -2 -105 0q-60 2 -147 6v-4q-11 -14 -41 -22l-34 -4h-15h-6h-5h-10q-36 0 -106 2 h-85q-41 0 -67 12q-41 4 -69 8q-65 9 -90 21h-16q-36 0 -63 10t-27 24.5z" />
<glyph unicode="&#x2014;" horiz-adv-x="2272" d="M178 698.5q0 14.5 54 24.5t126 10h42h41q31 4 87 6q31 2 83 2q72 0 190 -4q73 0 201 -4q253 0 454 -2q340 -2 495 -6l118 -4q31 0 62 -4q62 -6 82 -19q42 -23 -51 -39q-72 -12 -211 -14q-83 -2 -212 0q-118 2 -293 6v-4q-21 -14 -83 -22l-67 -4h-31h-10h-10h-21 q-72 0 -211 2h-170q-83 0 -134 12q-83 4 -139 8q-129 9 -181 21h-31q-72 0 -126 10t-54 24.5z" />
<glyph unicode="&#x2018;" horiz-adv-x="405" d="M188 1479q0 43 11 65q0 16 2 27q2 14 13 23.5t26 7.5q28 -4 30 -33q6 -6 9 -17v-22q-2 -6 -3.5 -11.5t-1.5 -7.5v-6q2 -117 17 -170q8 -29 43 -92q0 -2 2 -4t5 -7t7 -9q6 -8 8 -14.5t2 -12.5q2 -25 -20 -35q-12 -6 -27 0h-2q-6 -10 -16 -16q-12 -6 -26.5 -2t-20.5 16 q-31 57 -49 203q-10 70 -9 117zM328 1227q6 -8 12 -2h-2q-2 0 -4 2h-6z" />
<glyph unicode="&#x2019;" horiz-adv-x="380" d="M196 1536.5q3 13.5 16 21t26.5 4.5t21.5 -18q6 -10 12 -22q14 4 26.5 -3.5t14.5 -21.5q23 -82 21 -176q-2 -125 -51 -184l-7 -7q-12 -10 -26 -8q-23 2 -31 25q-2 6 -2 13t4 20q2 4 5 16t3 16q4 18 9 31q0 2 1 5t2 5t1 41q2 76 -6.5 121t-36.5 96q-6 12 -3 25.5z" />
<glyph unicode="&#x201c;" horiz-adv-x="608" d="M145 1338.5q-2 93.5 29 174.5q6 14 19.5 19.5t26.5 0.5t18.5 -18.5t1.5 -25.5l-4 -12q12 -10 12 -29q-2 -39 -2 -59q20 -3 28 -23q49 -131 103 -299q4 -14 -2 -26.5t-21 -16.5q-18 -6 -32 6q-10 -10 -25 -12q-16 -2 -31 10q-14 8 -28 31q-33 45 -58 104q-33 82 -35 175.5 zM367 1436q0 6 4 14q-2 20 -4 39q-2 14 7 25.5t23.5 13.5t25.5 -7.5t13 -23.5q4 -39 6 -111q2 -63 2 -73q14 -80 56 -148q0 -4 8 -14l16 -23q23 -35 27 -51q2 -2 4 -6v-6q4 -10 4 -18q6 -35 -16 -56q-12 -10 -29 -8l-12 4q-2 2 -6 5t-9 9q-8 6 -18 19q-25 29 -29 35 q-53 84 -63 221q-2 12 -2 29q-10 59 -8 131z" />
<glyph unicode="&#x201d;" horiz-adv-x="751" d="M258 1519.5q0 14.5 11.5 23.5t25.5 9t22 -10q33 -35 62 -80q20 -2 29 -20q31 -63 41 -129q37 -137 -33 -228l-6 -8q-4 -6 -9 -10q-29 -31 -59 -10q-12 6 -16 20q-6 27 18 39h2q12 18 27 70q14 53 6 112q-2 8 -4 15q-33 100 -107 180q-10 12 -10 26.5zM506 1481 q-2 18 12 30q12 10 26.5 8t22.5 -12q55 -70 80 -104q27 -39 45 -105q18 -63 10 -137q-4 -39 -16 -67q-4 -16 -12 -27q-6 -8 -12 -12q-18 -12 -37 -2q-31 12 -27 51q0 2 2 14v4q-2 20 -3 76.5t-4 75t-10.5 55.5t-24.5 60.5t-44 48.5q-20 18 -8 43z" />
<glyph unicode="&#x202f;" horiz-adv-x="354" />
<glyph unicode="&#x205f;" horiz-adv-x="443" />
<glyph unicode="&#x25fc;" horiz-adv-x="1208" d="M0 0v1208h1208v-1208h-1208z" />
</font>
</defs>
</svg>
